<svg width="34" height="35" viewBox="0 0 34 35" fill="none" xmlns="http://www.w3.org/2000/svg">
<rect y="0.5" width="34" height="34" rx="6" fill="#7367F0" fill-opacity="0.08"/>
<path d="M19.7501 11.084V12.9173" stroke="#7367F0" stroke-width="1.5" stroke-linecap="round" stroke-linejoin="round"/>
<path d="M19.7501 16.584V18.4173" stroke="#7367F0" stroke-width="1.5" stroke-linecap="round" stroke-linejoin="round"/>
<path d="M19.7501 22.084V23.9173" stroke="#7367F0" stroke-width="1.5" stroke-linecap="round" stroke-linejoin="round"/>
<path d="M10.5833 11.084H23.4167C24.4292 11.084 25.25 11.9048 25.25 12.9173V15.6673C24.2375 15.6673 23.4167 16.4881 23.4167 17.5007C23.4167 18.5132 24.2375 19.334 25.25 19.334V22.084C25.25 23.0965 24.4292 23.9173 23.4167 23.9173H10.5833C9.57081 23.9173 8.75 23.0965 8.75 22.084V19.334C9.76252 19.334 10.5833 18.5132 10.5833 17.5007C10.5833 16.4881 9.76252 15.6673 8.75 15.6673V12.9173C8.75 11.9048 9.57081 11.084 10.5833 11.084" stroke="#7367F0" stroke-width="1.5" stroke-linecap="round" stroke-linejoin="round"/>
</svg>
