<svg width="18" height="18" viewBox="0 0 18 18" fill="none" xmlns="http://www.w3.org/2000/svg">
<path fill-rule="evenodd" clip-rule="evenodd" d="M8.99963 13.3125L4.37063 15.7462L5.25488 10.5915L1.50488 6.94121L6.67988 6.19121L8.99438 1.50146L11.3089 6.19121L16.4839 6.94121L12.7339 10.5915L13.6181 15.7462L8.99963 13.3125Z" fill="#00936C"/>
<path fill-rule="evenodd" clip-rule="evenodd" d="M8.99963 13.3125L4.37063 15.7462L5.25488 10.5915L1.50488 6.94121L6.67988 6.19121L8.99438 1.50146L11.3089 6.19121L16.4839 6.94121L12.7339 10.5915L13.6181 15.7462L8.99963 13.3125Z" stroke="#00936C" stroke-width="1.5" stroke-linecap="round" stroke-linejoin="round"/>
<path fill-rule="evenodd" clip-rule="evenodd" d="M8.99963 13.3125L4.37063 15.7462L5.25488 10.5915L1.50488 6.94121L6.67988 6.19121L8.99438 1.50146L11.3089 6.19121L16.4839 6.94121L12.7339 10.5915L13.6181 15.7462L8.99963 13.3125Z" stroke="white" stroke-opacity="0.2" stroke-width="1.5" stroke-linecap="round" stroke-linejoin="round"/>
</svg>
