<svg width="167" height="41" viewBox="0 0 167 41" fill="none" xmlns="http://www.w3.org/2000/svg">
<path d="M4.83243 27.9238H0V27.9346V31.0698V37.6211V40.7563V40.7671H3.13513V40.7563H4.82162H7.95676V37.6211V31.0698V27.9346H4.83243V27.9238ZM3.13513 37.6103V31.059H4.82162V37.6103H3.13513Z" fill="#6E7B6C"/>
<path d="M32.0002 35.8368V27.8477H31.1785H28.865H27.1785H24.5623H24.0434V37.5341H22.2921V30.9828V27.8477H19.1569H17.4056H14.2704V30.9828V32.6909H12.6488V27.8477H9.51367V40.6801H12.6488V35.8368H14.2704V37.545V40.6801H17.4056H19.1569H22.2921H24.0434H27.1785H32.0002V37.545H27.1785V30.9936H28.865V35.8368H32.0002ZM17.4056 37.545V30.9936H19.1569V37.545H17.4056Z" fill="#6E7B6C"/>
<path d="M32.0002 23.1895H11.9678V26.3246H32.0002V23.1895Z" fill="#00936C"/>
<path d="M31.8919 13.9573L23.2 9.61133L14.4973 13.9573V16.8654H17.3946V15.7519L23.2 12.8438L28.8649 15.6762V18.5194H11.6V16.9951V15.5248V13.8492H0V13.9573V16.8654V16.9951H8.46487V18.5194H0V18.5411V20.3248V21.6546V23.1897V26.3248H5.7946V26.0113V24.3357V23.1897H3.13514V21.6546H32" fill="#6E7B6C"/>
<path d="M10.432 23.1895H7.29688V26.3246H10.432V23.1895Z" fill="#6E7B6C"/>
<path d="M6.16266 4.07568V3.42703C6.16266 3.2973 6.08698 3.18919 5.97888 3.13513C6.0005 3.1027 6.01131 3.07027 6.01131 3.02703V2.62703C6.11942 2.62703 6.22752 2.60541 6.34644 2.58378C6.72482 2.47568 7.02752 2.23784 7.22212 1.92432C7.08158 2.02162 6.93023 2.0973 6.75725 2.14054C5.97887 2.34595 5.17887 1.89189 4.97347 1.12432C4.86536 0.735135 4.93023 0.335135 5.12482 0C4.63833 0.345946 4.4005 0.962162 4.56266 1.55676C4.69239 2.02162 5.02752 2.36757 5.44914 2.52973C5.44914 2.54054 5.44914 2.55135 5.44914 2.57297V3.02703C5.44914 3.05946 5.45996 3.1027 5.48158 3.13513C5.37347 3.18919 5.30861 3.2973 5.30861 3.42703V4.08649C2.46536 4.36757 0.151848 6.81081 0.0761719 9.80541V12.7568H3.21131V9.80541C3.03833 8.12973 4.31401 6.72432 5.75185 6.65946C7.26536 6.59459 8.71401 8.03243 8.54104 9.80541V12.7568H11.6762V9.80541C11.5789 6.7027 9.09239 4.23784 6.16266 4.07568Z" fill="#00936C"/>
<path d="M48.416 19.36C48.416 18.592 48.688 18.008 49.232 17.608C49.776 17.192 50.576 16.984 51.632 16.984V24.136H58.808V19.36C58.808 18.576 59.08 17.984 59.624 17.584C60.184 17.184 60.984 16.984 62.024 16.984V31.84C62.024 32.608 61.744 33.2 61.184 33.616C60.64 34.016 59.848 34.216 58.808 34.216V26.92H51.632V31.84C51.632 32.608 51.352 33.2 50.792 33.616C50.248 34.016 49.456 34.216 48.416 34.216V19.36ZM68.8297 34.216C68.0137 34.216 67.2617 34.056 66.5737 33.736C65.9017 33.416 65.3577 32.96 64.9417 32.368C64.5417 31.76 64.3417 31.04 64.3417 30.208C64.3417 29.376 64.5577 28.656 64.9897 28.048C65.4217 27.424 66.0057 26.952 66.7417 26.632C67.4937 26.296 68.3177 26.128 69.2137 26.128C69.9497 26.128 70.6057 26.248 71.1817 26.488C71.7737 26.712 72.3177 27.056 72.8137 27.52L72.9337 27.4C72.7897 27.256 72.5417 27.04 72.1897 26.752V26.272C72.1897 25.616 71.9577 25.096 71.4937 24.712C71.0297 24.328 70.3817 24.136 69.5497 24.136C68.0617 24.136 66.9657 24.68 66.2617 25.768C65.9097 25.656 65.6137 25.48 65.3737 25.24C65.1337 24.984 65.0137 24.712 65.0137 24.424C65.0137 23.944 65.2297 23.504 65.6617 23.104C66.0937 22.704 66.6777 22.384 67.4137 22.144C68.1497 21.904 68.9497 21.784 69.8137 21.784C71.5097 21.784 72.8217 22.184 73.7497 22.984C74.6777 23.768 75.1417 24.84 75.1417 26.2V32.2C75.1417 32.904 74.9177 33.416 74.4697 33.736C74.0217 34.056 73.3177 34.216 72.3577 34.216V33.232C72.6297 32.96 72.8137 32.76 72.9097 32.632L72.8137 32.512C72.2857 33.072 71.7177 33.496 71.1097 33.784C70.5177 34.072 69.7577 34.216 68.8297 34.216ZM69.5977 32.032C70.4297 32.032 71.0777 31.872 71.5417 31.552C72.0057 31.232 72.2377 30.776 72.2377 30.184C72.2377 29.608 71.9977 29.152 71.5177 28.816C71.0537 28.48 70.4217 28.312 69.6217 28.312C68.8857 28.312 68.3017 28.48 67.8697 28.816C67.4537 29.136 67.2457 29.592 67.2457 30.184C67.2457 30.792 67.4537 31.256 67.8697 31.576C68.2857 31.88 68.8617 32.032 69.5977 32.032ZM80.6463 20.656C80.0703 20.656 79.5903 20.488 79.2063 20.152C78.8383 19.8 78.6543 19.352 78.6543 18.808C78.6543 18.28 78.8383 17.848 79.2063 17.512C79.5903 17.16 80.0703 16.984 80.6463 16.984C81.2223 16.984 81.6943 17.16 82.0623 17.512C82.4463 17.848 82.6383 18.28 82.6383 18.808C82.6383 19.352 82.4463 19.8 82.0623 20.152C81.6943 20.488 81.2223 20.656 80.6463 20.656ZM77.8143 39.016C76.9023 39.016 76.1583 38.8 75.5823 38.368C75.0223 37.936 74.7423 37.408 74.7423 36.784C74.7423 36.24 74.9503 35.848 75.3663 35.608C75.8463 36.152 76.5103 36.424 77.3583 36.424C77.9503 36.424 78.3903 36.264 78.6783 35.944C78.9823 35.64 79.1343 35.208 79.1343 34.648V23.608C79.1343 22.952 79.3823 22.488 79.8783 22.216C80.3743 21.928 81.1263 21.784 82.1343 21.784V34.672C82.1343 35.488 81.9503 36.224 81.5823 36.88C81.2303 37.536 80.7263 38.056 80.0703 38.44C79.4143 38.824 78.6623 39.016 77.8143 39.016ZM89.5994 20.656C89.0234 20.656 88.5434 20.488 88.1594 20.152C87.7914 19.8 87.6074 19.352 87.6074 18.808C87.6074 18.28 87.7914 17.848 88.1594 17.512C88.5434 17.16 89.0234 16.984 89.5994 16.984C90.1754 16.984 90.6474 17.16 91.0154 17.512C91.3994 17.848 91.5914 18.28 91.5914 18.808C91.5914 19.352 91.3994 19.8 91.0154 20.152C90.6474 20.488 90.1754 20.656 89.5994 20.656ZM86.7674 39.016C85.8554 39.016 85.1114 38.8 84.5354 38.368C83.9754 37.936 83.6954 37.408 83.6954 36.784C83.6954 36.24 83.9034 35.848 84.3194 35.608C84.7994 36.152 85.4634 36.424 86.3114 36.424C86.9034 36.424 87.3434 36.264 87.6314 35.944C87.9354 35.64 88.0874 35.208 88.0874 34.648V23.608C88.0874 22.952 88.3354 22.488 88.8314 22.216C89.3274 21.928 90.0794 21.784 91.0874 21.784V34.672C91.0874 35.488 90.9034 36.224 90.5354 36.88C90.1834 37.536 89.6794 38.056 89.0234 38.44C88.3674 38.824 87.6154 39.016 86.7674 39.016Z" fill="#6E7B6C"/>
<path d="M101.384 34.216C100.04 34.216 98.8238 33.944 97.7358 33.4C96.6638 32.856 95.8238 32.104 95.2158 31.144C94.6078 30.184 94.3038 29.096 94.3038 27.88V19.36C94.3038 18.592 94.5758 18.008 95.1198 17.608C95.6638 17.192 96.4638 16.984 97.5198 16.984V27.88C97.5198 28.952 97.8718 29.808 98.5758 30.448C99.2798 31.088 100.216 31.408 101.384 31.408C102.552 31.408 103.488 31.088 104.192 30.448C104.896 29.808 105.248 28.952 105.248 27.88V19.36C105.248 18.576 105.52 17.984 106.064 17.584C106.608 17.184 107.408 16.984 108.464 16.984V27.88C108.464 29.096 108.16 30.184 107.552 31.144C106.944 32.104 106.096 32.856 105.008 33.4C103.936 33.944 102.728 34.216 101.384 34.216ZM111.158 24.088C111.158 23.352 111.39 22.784 111.854 22.384C112.318 21.984 113.022 21.784 113.966 21.784V23.224C113.678 23.576 113.486 23.832 113.39 23.992L113.558 24.088C114.054 23.336 114.582 22.768 115.142 22.384C115.702 21.984 116.366 21.784 117.134 21.784C118.526 21.784 119.486 22.464 120.014 23.824C120.414 23.184 120.926 22.688 121.55 22.336C122.174 21.968 122.878 21.784 123.662 21.784C124.75 21.784 125.614 22.184 126.254 22.984C126.91 23.768 127.238 24.776 127.238 26.008V32.392C127.238 33.032 126.99 33.496 126.494 33.784C126.014 34.072 125.278 34.216 124.286 34.216V26.248C124.286 25.656 124.15 25.184 123.878 24.832C123.622 24.48 123.222 24.304 122.678 24.304C122.102 24.304 121.614 24.504 121.214 24.904C120.83 25.288 120.638 25.896 120.638 26.728V32.392C120.638 33.032 120.398 33.496 119.918 33.784C119.454 34.072 118.726 34.216 117.734 34.216V26.248C117.734 25.64 117.606 25.168 117.35 24.832C117.094 24.48 116.694 24.304 116.15 24.304C115.478 24.304 114.966 24.536 114.614 25C114.278 25.448 114.11 26.064 114.11 26.848V32.392C114.11 33.032 113.862 33.496 113.366 33.784C112.886 34.072 112.15 34.216 111.158 34.216V24.088ZM136.076 24.376C135.132 24.376 134.364 24.632 133.772 25.144C133.18 25.64 132.884 26.264 132.884 27.016V32.392C132.884 33.032 132.644 33.496 132.164 33.784C131.684 34.072 130.932 34.216 129.908 34.216V24.088C129.908 23.352 130.14 22.784 130.604 22.384C131.084 21.984 131.804 21.784 132.764 21.784V23.2C132.524 23.472 132.332 23.736 132.188 23.992L132.332 24.088C133.34 22.552 134.604 21.784 136.124 21.784C136.812 21.784 137.332 21.968 137.684 22.336C138.036 22.688 138.212 23.136 138.212 23.68C138.212 24.096 138.1 24.448 137.876 24.736C137.444 24.496 136.844 24.376 136.076 24.376ZM143.173 34.216C142.357 34.216 141.605 34.056 140.917 33.736C140.245 33.416 139.701 32.96 139.285 32.368C138.885 31.76 138.685 31.04 138.685 30.208C138.685 29.376 138.901 28.656 139.333 28.048C139.765 27.424 140.349 26.952 141.085 26.632C141.837 26.296 142.661 26.128 143.557 26.128C144.293 26.128 144.949 26.248 145.525 26.488C146.117 26.712 146.661 27.056 147.157 27.52L147.277 27.4C147.133 27.256 146.885 27.04 146.533 26.752V26.272C146.533 25.616 146.301 25.096 145.837 24.712C145.373 24.328 144.725 24.136 143.893 24.136C142.405 24.136 141.309 24.68 140.605 25.768C140.253 25.656 139.957 25.48 139.717 25.24C139.477 24.984 139.357 24.712 139.357 24.424C139.357 23.944 139.573 23.504 140.005 23.104C140.437 22.704 141.021 22.384 141.757 22.144C142.493 21.904 143.293 21.784 144.157 21.784C145.853 21.784 147.165 22.184 148.093 22.984C149.021 23.768 149.485 24.84 149.485 26.2V32.2C149.485 32.904 149.261 33.416 148.813 33.736C148.365 34.056 147.661 34.216 146.701 34.216V33.232C146.973 32.96 147.157 32.76 147.253 32.632L147.157 32.512C146.629 33.072 146.061 33.496 145.453 33.784C144.861 34.072 144.101 34.216 143.173 34.216ZM143.941 32.032C144.773 32.032 145.421 31.872 145.885 31.552C146.349 31.232 146.581 30.776 146.581 30.184C146.581 29.608 146.341 29.152 145.861 28.816C145.397 28.48 144.765 28.312 143.965 28.312C143.229 28.312 142.645 28.48 142.213 28.816C141.797 29.136 141.589 29.592 141.589 30.184C141.589 30.792 141.797 31.256 142.213 31.576C142.629 31.88 143.205 32.032 143.941 32.032ZM152.174 19.288C152.174 18.552 152.43 17.984 152.942 17.584C153.454 17.184 154.19 16.984 155.15 16.984V23.224C154.942 23.448 154.75 23.704 154.574 23.992L154.718 24.088C155.822 22.552 157.23 21.784 158.942 21.784C159.758 21.784 160.478 21.968 161.102 22.336C161.726 22.704 162.206 23.208 162.542 23.848C162.894 24.488 163.07 25.208 163.07 26.008V32.392C163.07 33.032 162.822 33.496 162.326 33.784C161.83 34.072 161.078 34.216 160.07 34.216V26.44C160.07 25.832 159.886 25.336 159.518 24.952C159.166 24.568 158.646 24.376 157.958 24.376C157.142 24.376 156.47 24.632 155.942 25.144C155.414 25.64 155.15 26.264 155.15 27.016V32.392C155.15 33.032 154.902 33.496 154.406 33.784C153.91 34.072 153.166 34.216 152.174 34.216V19.288Z" fill="#00936C"/>
</svg>
