<svg width="50" height="50" viewBox="0 0 50 50" fill="none" xmlns="http://www.w3.org/2000/svg">
<rect width="50" height="50" rx="5" fill="#CDE6E0"/>
<path d="M13.6814 31.0518H9V31.0622V34.0994V40.446V43.4832V43.4937H12.0372V43.4832H13.6709H16.7081V40.446V34.0994V31.0622H13.6814V31.0518ZM12.0372 40.4355V34.0889H13.6709V40.4355H12.0372Z" fill="#6E7B6C"/>
<path d="M40.0002 38.718V30.9785H39.2042H36.963H35.3292H32.7947H32.292V40.3623H30.5954V34.0157V30.9785H27.5583H25.8616H22.8245V34.0157V35.6704H21.2535V30.9785H18.2164V43.4099H21.2535V38.718H22.8245V40.3728V43.4099H25.8616H27.5583H30.5954H32.292H35.3292H40.0002V40.3728H35.3292V34.0261H36.963V38.718H40.0002ZM25.8616 40.3728V34.0261H27.5583V40.3728H25.8616Z" fill="#6E7B6C"/>
<path d="M40.0001 26.4651H20.5937V29.5022H40.0001V26.4651Z" fill="#00936C"/>
<path d="M39.8953 17.5207L31.475 13.3105L23.0443 17.5207V20.3379H25.851V19.2592L31.475 16.442L36.9628 19.1859V21.9403H20.2375V20.4636V19.0393V17.416H9V17.5207V20.3379V20.4636H17.2003V21.9403H9V21.9612V23.6893V24.9774V26.4646V29.5018H14.6135V29.198V27.5747V26.4646H12.0372V24.9774H40" fill="#6E7B6C"/>
<path d="M19.1065 26.4651H16.0693V29.5022H19.1065V26.4651Z" fill="#6E7B6C"/>
<path d="M14.9695 7.94831V7.31993C14.9695 7.19426 14.8962 7.08953 14.7915 7.03716C14.8124 7.00574 14.8229 6.97432 14.8229 6.93243V6.54493C14.9276 6.54493 15.0324 6.52399 15.1476 6.50304C15.5141 6.39831 15.8074 6.16791 15.9959 5.86419C15.8597 5.95845 15.7131 6.03176 15.5455 6.07365C14.7915 6.27264 14.0165 5.83277 13.8175 5.08919C13.7128 4.71216 13.7756 4.32466 13.9641 4C13.4928 4.33514 13.2624 4.93209 13.4195 5.50811C13.5452 5.95845 13.8699 6.29358 14.2783 6.45068C14.2783 6.46115 14.2783 6.47162 14.2783 6.49257V6.93243C14.2783 6.96385 14.2888 7.00574 14.3097 7.03716C14.205 7.08953 14.1422 7.19426 14.1422 7.31993V7.95878C11.3878 8.23108 9.14655 10.598 9.07324 13.499V16.3581H12.1104V13.499C11.9428 11.8757 13.1786 10.5142 14.5716 10.4514C16.0378 10.3885 17.4411 11.7814 17.2736 13.499V16.3581H20.3107V13.499C20.2165 10.4932 17.8077 8.10541 14.9695 7.94831Z" fill="#00936C"/>
</svg>
