<svg width="32" height="34" viewBox="0 0 32 34" fill="none" xmlns="http://www.w3.org/2000/svg">
<path d="M28.1444 15.8496V9.04753C28.1444 2.61271 26.6435 1 20.6078 1H8.53656C2.50093 1 1 2.61271 1 9.04753V27.0267C1 31.274 3.33124 32.2799 6.15745 29.2461L6.17338 29.2302C7.4827 27.841 9.47861 27.9528 10.6123 29.4697L12.225 31.6253" stroke="#00936C" stroke-width="2" stroke-linecap="round" stroke-linejoin="round"/>
<path d="M24.4718 31.9769C27.2937 31.9769 29.5814 29.6892 29.5814 26.8673C29.5814 24.0454 27.2937 21.7578 24.4718 21.7578C21.6499 21.7578 19.3623 24.0454 19.3623 26.8673C19.3623 29.6892 21.6499 31.9769 24.4718 31.9769Z" stroke="#00936C" stroke-width="2" stroke-linecap="round" stroke-linejoin="round"/>
<path d="M30.5396 32.9346L28.9429 31.3379" stroke="#00936C" stroke-width="2" stroke-linecap="round" stroke-linejoin="round"/>
<path opacity="0.4" d="M8.1853 8.98389H20.9591" stroke="#00936C" stroke-width="2" stroke-linecap="round" stroke-linejoin="round"/>
<path opacity="0.4" d="M9.78198 15.3706H19.3624" stroke="#00936C" stroke-width="2" stroke-linecap="round" stroke-linejoin="round"/>
</svg>
