<svg width="18" height="18" viewBox="0 0 18 18" fill="none" xmlns="http://www.w3.org/2000/svg">
<path d="M11.9288 5.33301L7.76947 10.013L5.32812 8.12301L4.3335 9.65301L8.13115 12.533L13.3755 6.59301L11.9288 5.33301Z" fill="black"/>
<path fill-rule="evenodd" clip-rule="evenodd" d="M9 18C13.9706 18 18 13.9706 18 9C18 4.02944 13.9706 0 9 0C4.02944 0 0 4.02944 0 9C0 13.9706 4.02944 18 9 18ZM8.99997 16.6666C13.2342 16.6666 16.6666 13.2342 16.6666 8.99997C16.6666 4.76578 13.2342 1.3333 8.99997 1.3333C4.76578 1.3333 1.3333 4.76578 1.3333 8.99997C1.3333 13.2342 4.76578 16.6666 8.99997 16.6666Z" fill="black"/>
</svg>
