<svg width="42" height="33" viewBox="0 0 42 33" fill="none" xmlns="http://www.w3.org/2000/svg">
<path d="M25.5042 10.1068H29.6624C30.4517 10.1068 31.0917 9.46513 31.0917 8.67642C31.0917 7.88658 30.4517 7.24716 29.6624 7.24716H25.476C25.2067 5.35819 24.3831 3.72498 23.0721 2.56952C21.1094 0.793784 18.3325 0 14.0673 0L6.59703 0.0253516C6.36718 0.0253516 6.18239 0.212389 6.18239 0.439426V7.24659H1.42926C0.639985 7.24659 0 7.88601 0 8.67586C0 9.46457 0.639985 10.1062 1.42926 10.1062H6.18239V30.7965C6.18239 31.0258 6.36718 31.2122 6.59816 31.2122H10.4893C10.7198 31.2122 10.904 31.0258 10.904 30.7965V18.1477H17.1906L21.822 30.9379C21.8812 31.1046 22.0367 31.2128 22.2119 31.2128H26.2383C26.3757 31.2128 26.5025 31.1463 26.5808 31.0348C26.6574 30.9238 26.6749 30.7796 26.6281 30.6522L21.5178 16.9872C24.0417 14.8695 25.2141 12.882 25.5042 10.1068ZM10.904 3.83259L14.3349 3.83033C16.8317 3.8585 19.719 4.52497 20.5894 7.24716H10.904V3.83259ZM14.4718 14.363H10.904V10.1068H20.7573C20.2643 12.7242 17.9094 14.363 14.4718 14.363ZM41.652 25.5943C41.652 29.5779 38.5005 32.1547 33.6223 32.1547C31.4381 32.1547 29.2951 31.6308 27.7436 30.7176L27.4489 30.5424C27.3622 30.4923 27.3233 30.3897 27.3549 30.2939L28.5329 26.707C28.5537 26.645 28.6033 26.5949 28.6647 26.5718C28.7261 26.5509 28.7965 26.5599 28.8512 26.596L29.3148 26.8985C30.3249 27.5594 32.0725 28.2247 33.704 28.2247C35.709 28.2247 36.9062 27.365 36.9062 25.9217C36.9062 24.5504 36.0831 23.7859 33.6465 22.8851C28.983 21.2209 28.0022 18.6001 28.0022 16.6909C28.0022 12.9005 31.0686 10.2538 35.46 10.2538C37.3163 10.2538 39.2549 10.7445 40.6458 11.5676L40.9433 11.744C41.0306 11.7963 41.0695 11.9006 41.0362 11.9969L39.8503 15.447C39.8295 15.5078 39.781 15.5568 39.7208 15.5777C39.6594 15.5996 39.5918 15.5912 39.536 15.5568L39.0814 15.2701C38.585 14.9546 37.2284 14.225 35.3795 14.225C33.7823 14.225 32.7085 15.052 32.7085 16.2813C32.7085 17.4289 33.4595 18.0469 36.0555 19.0356C39.9253 20.5094 41.652 22.5324 41.652 25.5943Z" fill="#00936C"/>
</svg>
