<svg width="170" height="170" viewBox="0 0 170 170" fill="none" xmlns="http://www.w3.org/2000/svg">
<circle cx="85" cy="85" r="85" fill="#F6F6F6"/>
<g filter="url(#filter0_d_2115_4440)">
<path d="M32 61.3199V65.4399H137.69V61.3199L84.85 34.6299L32 61.3199Z" fill="#E0E0E0"/>
<path d="M84.85 34.6299L32 61.3199V63.6899L84.85 36.9999L137.69 63.6899V61.3199L84.85 34.6299Z" fill="#E9E8E8"/>
<path d="M84.85 31L32 57.7V61.32L84.85 34.63L137.69 61.32V57.7L84.85 31Z" fill="#E0E0E0"/>
<path d="M125.73 60.4298H43.97L84.85 39.7798L125.73 60.4298Z" fill="#E9E8E8"/>
<path d="M48.79 59.2801L84.85 41.0601L120.9 59.2801H48.79Z" fill="#EAE6DE"/>
<path d="M131.03 65.4399H38.9299V70.7199H131.03V65.4399Z" fill="#EAE6DE"/>
<path d="M131.03 66.7002H38.9299V68.0802H131.03V66.7002Z" fill="#DFDFDE"/>
<path d="M131.95 65.4399H38.02V66.6999H131.95V65.4399Z" fill="#DBD7CC"/>
<path d="M131.95 69.46H38.02V70.72H131.95V69.46Z" fill="#DBD7CC"/>
<path d="M131.95 118.63H38.02V122.08H131.95V118.63Z" fill="#E0E0E0"/>
<path d="M133.81 122.08H36.1499V125.53H133.81V122.08Z" fill="#E0E0E0"/>
<path d="M135.82 125.52H34.1399V128.97H135.82V125.52Z" fill="#E0E0E0"/>
<path d="M131.95 121.04H38.02V122.07H131.95V121.04Z" fill="#E9E8E8"/>
<path d="M133.81 124.49H36.1499V125.52H133.81V124.49Z" fill="#E9E8E8"/>
<path d="M135.82 127.94H34.1399V128.97H135.82V127.94Z" fill="#E9E8E8"/>
<path d="M122.76 70.7202H47.21V118.63H122.76V70.7202Z" fill="#7B7672"/>
<path d="M122.76 70.7202H47.21V85.1802H122.76V70.7202Z" fill="#D2D2D2"/>
<path d="M122.76 70.7202H47.21V73.7602H122.76V70.7202Z" fill="#D2D2D2"/>
<path d="M135.82 128.97H34.1399V130.84H135.82V128.97Z" fill="#00936C"/>
<path d="M73.06 50.9399H75.13C75.48 50.9399 75.78 50.9799 76.05 51.0599C76.32 51.1399 76.55 51.2499 76.74 51.3899C76.93 51.5299 77.07 51.6999 77.17 51.8999C77.27 52.0999 77.32 52.3199 77.32 52.5599C77.32 52.7299 77.3 52.8899 77.25 53.0299C77.2 53.1699 77.14 53.2899 77.08 53.3999C77.01 53.5099 76.94 53.5999 76.85 53.6799C76.77 53.7599 76.6901 53.8299 76.6101 53.8799C76.9701 53.9799 77.25 54.1499 77.44 54.3799C77.64 54.6199 77.74 54.9099 77.74 55.2699C77.74 55.5199 77.69 55.7599 77.58 55.9699C77.47 56.1799 77.32 56.3599 77.12 56.5099C76.92 56.6599 76.68 56.7699 76.39 56.8599C76.11 56.9399 75.7901 56.9799 75.43 56.9799H73.05V50.9399H73.06ZM74.39 51.9599V53.4399H75.76C75.82 53.3599 75.87 53.2499 75.92 53.1199C75.97 52.9899 76 52.8399 76 52.6699C76 52.4299 75.92 52.2499 75.76 52.1299C75.6 52.0099 75.37 51.9499 75.06 51.9499H74.39V51.9599ZM74.39 54.3599V55.9499H75.35C75.52 55.9499 75.67 55.9299 75.8 55.8999C75.94 55.8699 76.05 55.8199 76.15 55.7599C76.25 55.6999 76.32 55.6199 76.37 55.5199C76.42 55.4199 76.4501 55.3099 76.4501 55.1699C76.4501 54.8999 76.3701 54.6999 76.2001 54.5599C76.0401 54.4199 75.79 54.3499 75.47 54.3499H74.39V54.3599Z" fill="#00936C"/>
<path d="M82.2902 55.7097H80.1202L79.7102 56.9697H78.4102L80.4902 50.9497H81.9302L84.0102 56.9697H82.7102L82.2902 55.7097ZM80.4302 54.7297H81.9802L81.2102 52.3597L80.4302 54.7297Z" fill="#00936C"/>
<path d="M84.8901 50.9399H86.2101C86.2201 50.9399 88.7901 54.9999 88.7901 54.9999V50.9399H90.1101V56.9599H88.7901L86.2101 52.8899V56.9599H84.8901V50.9399Z" fill="#00936C"/>
<path d="M93.4302 54.4597H92.7402V56.9697H91.4202V50.9497H92.7402V53.4797H93.4302L94.7302 50.9497H96.1002L94.5502 53.9397L96.4302 56.9797H94.9702L93.4302 54.4597Z" fill="#00936C"/>
<path d="M84.99 95.3198C80.7 95.3198 77.22 98.7998 77.22 103.09V118.63H92.76V103.09C92.76 98.7998 89.28 95.3198 84.99 95.3198Z" fill="#AEAEAE"/>
<path d="M77.56 70.7202H67.22V118.63H77.56V70.7202Z" fill="#E0E0E0"/>
<path d="M71.36 70.7202H69.29V118.63H71.36V70.7202Z" fill="#E9E8E8"/>
<path d="M75.4999 70.7202H73.4299V118.63H75.4999V70.7202Z" fill="#E9E8E8"/>
<path d="M67.22 70.7202V78.0902C69.17 78.0902 70.82 76.7702 71.32 74.9802H73.46C73.96 76.7702 75.61 78.0902 77.56 78.0902V70.7202H67.22Z" fill="#E9E8E8"/>
<path d="M77.56 70.7202H67.22V73.8302H77.56V70.7202Z" fill="#DBD7CC"/>
<path d="M77.56 111.4H67.22C66.66 111.4 66.21 111.85 66.21 112.41V118.63H78.56V112.41C78.57 111.86 78.12 111.4 77.56 111.4Z" fill="#DBD7CC"/>
<path d="M78.57 115.95H66.22C64.74 115.95 63.54 117.15 63.54 118.63H81.25C81.25 117.15 80.05 115.95 78.57 115.95Z" fill="#DBD7CC"/>
<path d="M71.19 111.4H69.34C69.01 111.4 68.75 111.85 68.75 112.41V115.95H70.95V112.41C70.96 111.86 71.06 111.4 71.19 111.4Z" fill="#E9E8E8"/>
<path d="M75.4401 111.4H73.6001C73.7301 111.4 73.8301 111.85 73.8301 112.41V115.95H76.0301V112.41C76.0301 111.86 75.7701 111.4 75.4401 111.4Z" fill="#E9E8E8"/>
<path d="M70.9599 115.95H68.7599C67.8899 115.95 67.1799 117.15 67.1799 118.63H70.3399C70.3399 117.15 70.6199 115.95 70.9599 115.95Z" fill="#E9E8E8"/>
<path d="M76.0301 115.95H73.8301C74.1701 115.95 74.4501 117.15 74.4501 118.63H77.6101C77.6101 117.15 76.9001 115.95 76.0301 115.95Z" fill="#E9E8E8"/>
<path d="M77.56 110.52H67.22V111.41H77.56V110.52Z" fill="#E9E8E8"/>
<path d="M78.57 115.02H66.22V115.95H78.57V115.02Z" fill="#E9E8E8"/>
<path d="M80.68 73.8302C80.68 72.1102 79.29 70.7202 77.57 70.7202C75.85 70.7202 74.46 72.1102 74.46 73.8302C74.46 75.5502 75.85 76.9402 77.57 76.9402C79.28 76.9402 80.68 75.5502 80.68 73.8302Z" fill="#DBD7CC"/>
<path d="M77.37 75.4101C78.24 75.4101 78.95 74.7001 78.95 73.8301H75.79C75.79 74.7001 76.5 75.4101 77.37 75.4101Z" fill="#E9E8E8"/>
<path d="M76.7 71.5801C75.46 71.5801 74.45 72.5901 74.45 73.8301H78.95C78.95 72.5901 77.94 71.5801 76.7 71.5801Z" fill="#E9E8E8"/>
<path d="M76.87 72.77C76.27 72.77 75.79 73.25 75.79 73.85H77.95C77.95 73.26 77.47 72.77 76.87 72.77Z" fill="#E9E8E8"/>
<path d="M64.1101 73.8302C64.1101 72.1102 65.5001 70.7202 67.2201 70.7202C68.9401 70.7202 70.3301 72.1102 70.3301 73.8302C70.3301 75.5502 68.9401 76.9402 67.2201 76.9402C65.5001 76.9402 64.1101 75.5502 64.1101 73.8302Z" fill="#DBD7CC"/>
<path d="M67.4201 75.4101C66.5501 75.4101 65.8401 74.7001 65.8401 73.8301H69.0001C69.0001 74.7001 68.2901 75.4101 67.4201 75.4101Z" fill="#E9E8E8"/>
<path d="M68.0901 71.5801C69.3301 71.5801 70.3401 72.5901 70.3401 73.8301H65.8401C65.8401 72.5901 66.8401 71.5801 68.0901 71.5801Z" fill="#E9E8E8"/>
<path d="M67.9201 72.77C68.5201 72.77 69.0001 73.25 69.0001 73.85H66.8401C66.8401 73.26 67.3201 72.77 67.9201 72.77Z" fill="#E9E8E8"/>
<path d="M102.75 70.7202H92.4099V118.63H102.75V70.7202Z" fill="#E0E0E0"/>
<path d="M96.54 70.7202H94.47V118.63H96.54V70.7202Z" fill="#E9E8E8"/>
<path d="M100.68 70.7202H98.6099V118.63H100.68V70.7202Z" fill="#E9E8E8"/>
<path d="M92.4099 70.7202V78.0902C94.3599 78.0902 96.0099 76.7702 96.5099 74.9802H98.6399C99.1399 76.7702 100.79 78.0902 102.74 78.0902V70.7202H92.4099Z" fill="#E9E8E8"/>
<path d="M102.75 70.7202H92.4099V73.8302H102.75V70.7202Z" fill="#DBD7CC"/>
<path d="M102.75 111.41H92.4099C91.8599 111.41 91.3999 111.86 91.3999 112.41V118.63H103.75V112.41C103.75 111.86 103.3 111.41 102.75 111.41Z" fill="#DBD7CC"/>
<path d="M103.75 115.95H91.4C89.92 115.95 88.72 117.15 88.72 118.63H106.43C106.43 117.15 105.23 115.95 103.75 115.95Z" fill="#DBD7CC"/>
<path d="M96.3699 111.41H94.5299C94.1999 111.41 93.9399 111.86 93.9399 112.41V115.95H96.1399V112.41C96.1399 111.86 96.2499 111.41 96.3699 111.41Z" fill="#E9E8E8"/>
<path d="M100.62 111.41H98.77C98.9 111.41 99 111.86 99 112.41V115.95H101.21V112.41C101.21 111.86 100.95 111.41 100.62 111.41Z" fill="#E9E8E8"/>
<path d="M96.1399 115.95H93.9399C93.0699 115.95 92.3599 117.15 92.3599 118.63H95.5199C95.5199 117.15 95.7999 115.95 96.1399 115.95Z" fill="#E9E8E8"/>
<path d="M101.21 115.95H99.01C99.35 115.95 99.63 117.15 99.63 118.63H102.79C102.79 117.15 102.09 115.95 101.21 115.95Z" fill="#E9E8E8"/>
<path d="M102.75 110.52H92.4099V111.41H102.75V110.52Z" fill="#E9E8E8"/>
<path d="M103.75 115.02H91.3999V115.95H103.75V115.02Z" fill="#E9E8E8"/>
<path d="M105.86 73.8302C105.86 72.1102 104.47 70.7202 102.75 70.7202C101.03 70.7202 99.6399 72.1102 99.6399 73.8302C99.6399 75.5502 101.03 76.9402 102.75 76.9402C104.46 76.9402 105.86 75.5502 105.86 73.8302Z" fill="#DBD7CC"/>
<path d="M102.55 75.4101C103.42 75.4101 104.13 74.7001 104.13 73.8301H100.97C100.98 74.7001 101.68 75.4101 102.55 75.4101Z" fill="#E9E8E8"/>
<path d="M101.88 71.5801C100.64 71.5801 99.6299 72.5901 99.6299 73.8301H104.13C104.13 72.5901 103.13 71.5801 101.88 71.5801Z" fill="#E9E8E8"/>
<path d="M102.05 72.77C101.45 72.77 100.97 73.25 100.97 73.85H103.13C103.13 73.26 102.65 72.77 102.05 72.77Z" fill="#E9E8E8"/>
<path d="M89.3 73.8302C89.3 72.1102 90.69 70.7202 92.41 70.7202C94.13 70.7202 95.52 72.1102 95.52 73.8302C95.52 75.5502 94.13 76.9402 92.41 76.9402C90.69 76.9402 89.3 75.5502 89.3 73.8302Z" fill="#DBD7CC"/>
<path d="M92.6 75.4101C91.73 75.4101 91.02 74.7001 91.02 73.8301H94.18C94.18 74.7001 93.47 75.4101 92.6 75.4101Z" fill="#E9E8E8"/>
<path d="M93.27 71.5801C94.51 71.5801 95.52 72.5901 95.52 73.8301H91.02C91.02 72.5901 92.03 71.5801 93.27 71.5801Z" fill="#E9E8E8"/>
<path d="M93.1 72.77C93.7 72.77 94.18 73.25 94.18 73.85H92.02C92.02 73.26 92.5 72.77 93.1 72.77Z" fill="#E9E8E8"/>
<path d="M57.2401 115.95V112.41C57.2401 111.85 56.7901 111.4 56.2301 111.4V76.9402C57.9501 76.9402 59.3401 75.5502 59.3401 73.8302C59.3401 72.1102 57.9501 70.7202 56.2301 70.7202H52.3801V118.63H56.2301H57.2401H59.9201C59.9201 117.15 58.7201 115.95 57.2401 115.95Z" fill="#D2D2D2"/>
<path d="M52.38 70.7202H42.04V118.63H52.38V70.7202Z" fill="#E0E0E0"/>
<path d="M46.1801 70.7202H44.1101V118.63H46.1801V70.7202Z" fill="#E9E8E8"/>
<path d="M50.32 70.7202H48.25V118.63H50.32V70.7202Z" fill="#E9E8E8"/>
<path d="M42.04 70.7202V78.0902C43.99 78.0902 45.64 76.7702 46.14 74.9802H48.27C48.77 76.7702 50.42 78.0902 52.37 78.0902V70.7202H42.04Z" fill="#E9E8E8"/>
<path d="M52.38 70.7202H42.04V73.8302H52.38V70.7202Z" fill="#DBD7CC"/>
<path d="M52.38 111.4H42.04C41.48 111.4 41.03 111.85 41.03 112.41V118.63H53.38V112.41C53.39 111.86 52.94 111.4 52.38 111.4Z" fill="#DBD7CC"/>
<path d="M53.3901 115.95H41.0401C39.5601 115.95 38.3601 117.15 38.3601 118.63H56.0701C56.0701 117.15 54.8701 115.95 53.3901 115.95Z" fill="#DBD7CC"/>
<path d="M46.0101 111.4H44.1701C43.8401 111.4 43.5801 111.85 43.5801 112.41V115.95H45.7801V112.41C45.7801 111.86 45.8801 111.4 46.0101 111.4Z" fill="#E9E8E8"/>
<path d="M50.2602 111.4H48.4102C48.5402 111.4 48.6402 111.85 48.6402 112.41V115.95H50.8402V112.41C50.8502 111.86 50.5902 111.4 50.2602 111.4Z" fill="#E9E8E8"/>
<path d="M45.78 115.95H43.58C42.71 115.95 42 117.15 42 118.63H45.16C45.15 117.15 45.43 115.95 45.78 115.95Z" fill="#E9E8E8"/>
<path d="M50.8501 115.95H48.6501C48.9901 115.95 49.2701 117.15 49.2701 118.63H52.4301C52.4301 117.15 51.7201 115.95 50.8501 115.95Z" fill="#E9E8E8"/>
<path d="M52.38 110.52H42.04V111.41H52.38V110.52Z" fill="#E9E8E8"/>
<path d="M53.39 115.02H41.04V115.95H53.39V115.02Z" fill="#E9E8E8"/>
<path d="M55.49 73.8302C55.49 72.1102 54.1 70.7202 52.38 70.7202C50.66 70.7202 49.27 72.1102 49.27 73.8302C49.27 75.5502 50.66 76.9402 52.38 76.9402C54.1 76.9402 55.49 75.5502 55.49 73.8302Z" fill="#DBD7CC"/>
<path d="M52.1901 75.4101C53.0601 75.4101 53.7701 74.7001 53.7701 73.8301H50.6101C50.6101 74.7001 51.3201 75.4101 52.1901 75.4101Z" fill="#E9E8E8"/>
<path d="M51.52 71.5801C50.28 71.5801 49.27 72.5901 49.27 73.8301H53.77C53.77 72.5901 52.76 71.5801 51.52 71.5801Z" fill="#E9E8E8"/>
<path d="M51.6901 72.77C51.0901 72.77 50.6101 73.25 50.6101 73.85H52.7701C52.7701 73.26 52.2901 72.77 51.6901 72.77Z" fill="#E9E8E8"/>
<path d="M38.9302 73.8302C38.9302 72.1102 40.3202 70.7202 42.0402 70.7202C43.7602 70.7202 45.1502 72.1102 45.1502 73.8302C45.1502 75.5502 43.7602 76.9402 42.0402 76.9402C40.3202 76.9402 38.9302 75.5502 38.9302 73.8302Z" fill="#DBD7CC"/>
<path d="M42.2301 75.4101C41.3601 75.4101 40.6501 74.7001 40.6501 73.8301H43.8101C43.8201 74.7001 43.1101 75.4101 42.2301 75.4101Z" fill="#E9E8E8"/>
<path d="M42.9001 71.5801C44.1401 71.5801 45.1501 72.5901 45.1501 73.8301H40.6501C40.6501 72.5901 41.6601 71.5801 42.9001 71.5801Z" fill="#E9E8E8"/>
<path d="M42.7301 72.77C43.3301 72.77 43.8101 73.25 43.8101 73.85H41.6501C41.6501 73.26 42.1401 72.77 42.7301 72.77Z" fill="#E9E8E8"/>
<path d="M112.81 115.95V112.41C112.81 111.85 113.26 111.41 113.81 111.41V76.9402C112.09 76.9402 110.7 75.5502 110.7 73.8302C110.7 72.1102 112.09 70.7202 113.81 70.7202H117.66V118.63H113.81H112.81H110.13C110.13 117.15 111.33 115.95 112.81 115.95Z" fill="#D2D2D2"/>
<path d="M127.93 70.7202H117.59V118.63H127.93V70.7202Z" fill="#E0E0E0"/>
<path d="M121.73 70.7202H119.66V118.63H121.73V70.7202Z" fill="#E9E8E8"/>
<path d="M125.86 70.7202H123.79V118.63H125.86V70.7202Z" fill="#E9E8E8"/>
<path d="M117.59 70.7202V78.0902C119.54 78.0902 121.19 76.7702 121.69 74.9802H123.82C124.32 76.7702 125.97 78.0902 127.92 78.0902V70.7202H117.59Z" fill="#E9E8E8"/>
<path d="M127.93 70.7202H117.59V73.8302H127.93V70.7202Z" fill="#DBD7CC"/>
<path d="M127.93 111.41H117.59C117.04 111.41 116.59 111.86 116.59 112.41V118.63H128.94V112.41C128.93 111.86 128.48 111.41 127.93 111.41Z" fill="#DBD7CC"/>
<path d="M128.93 115.95H116.58C115.1 115.95 113.9 117.15 113.9 118.63H131.61C131.61 117.15 130.41 115.95 128.93 115.95Z" fill="#DBD7CC"/>
<path d="M121.56 111.41H119.71C119.38 111.41 119.12 111.86 119.12 112.41V115.95H121.32V112.41C121.32 111.86 121.43 111.41 121.56 111.41Z" fill="#E9E8E8"/>
<path d="M125.8 111.41H123.95C124.08 111.41 124.18 111.86 124.18 112.41V115.95H126.38V112.41C126.4 111.86 126.13 111.41 125.8 111.41Z" fill="#E9E8E8"/>
<path d="M121.32 115.95H119.12C118.25 115.95 117.54 117.15 117.54 118.63H120.7C120.7 117.15 120.98 115.95 121.32 115.95Z" fill="#E9E8E8"/>
<path d="M126.4 115.95H124.2C124.55 115.95 124.82 117.15 124.82 118.63H127.98C127.97 117.15 127.27 115.95 126.4 115.95Z" fill="#E9E8E8"/>
<path d="M127.93 110.52H117.59V111.41H127.93V110.52Z" fill="#E9E8E8"/>
<path d="M128.93 115.02H116.58V115.95H128.93V115.02Z" fill="#E9E8E8"/>
<path d="M131.04 73.8302C131.04 72.1102 129.65 70.7202 127.93 70.7202C126.21 70.7202 124.82 72.1102 124.82 73.8302C124.82 75.5502 126.21 76.9402 127.93 76.9402C129.64 76.9402 131.04 75.5502 131.04 73.8302Z" fill="#DBD7CC"/>
<path d="M127.74 75.4101C128.61 75.4101 129.32 74.7001 129.32 73.8301H126.16C126.16 74.7001 126.86 75.4101 127.74 75.4101Z" fill="#E9E8E8"/>
<path d="M127.06 71.5801C125.82 71.5801 124.81 72.5901 124.81 73.8301H129.31C129.31 72.5901 128.31 71.5801 127.06 71.5801Z" fill="#E9E8E8"/>
<path d="M127.23 72.77C126.63 72.77 126.15 73.25 126.15 73.85H128.31C128.32 73.26 127.83 72.77 127.23 72.77Z" fill="#E9E8E8"/>
<path d="M114.48 73.8302C114.48 72.1102 115.87 70.7202 117.59 70.7202C119.31 70.7202 120.7 72.1102 120.7 73.8302C120.7 75.5502 119.31 76.9402 117.59 76.9402C115.87 76.9402 114.48 75.5502 114.48 73.8302Z" fill="#DBD7CC"/>
<path d="M117.78 75.4101C116.91 75.4101 116.2 74.7001 116.2 73.8301H119.36C119.36 74.7001 118.65 75.4101 117.78 75.4101Z" fill="#E9E8E8"/>
<path d="M118.45 71.5801C119.69 71.5801 120.7 72.5901 120.7 73.8301H116.2C116.2 72.5901 117.21 71.5801 118.45 71.5801Z" fill="#E9E8E8"/>
<path d="M118.28 72.77C118.88 72.77 119.36 73.25 119.36 73.85H117.2C117.2 73.26 117.68 72.77 118.28 72.77Z" fill="#E9E8E8"/>
</g>
<defs>
<filter id="filter0_d_2115_4440" x="28" y="31" width="113.69" height="107.84" filterUnits="userSpaceOnUse" color-interpolation-filters="sRGB">
<feFlood flood-opacity="0" result="BackgroundImageFix"/>
<feColorMatrix in="SourceAlpha" type="matrix" values="0 0 0 0 0 0 0 0 0 0 0 0 0 0 0 0 0 0 127 0" result="hardAlpha"/>
<feOffset dy="4"/>
<feGaussianBlur stdDeviation="2"/>
<feComposite in2="hardAlpha" operator="out"/>
<feColorMatrix type="matrix" values="0 0 0 0 0.294118 0 0 0 0 0.27451 0 0 0 0 0.360784 0 0 0 0.4 0"/>
<feBlend mode="normal" in2="BackgroundImageFix" result="effect1_dropShadow_2115_4440"/>
<feBlend mode="normal" in="SourceGraphic" in2="effect1_dropShadow_2115_4440" result="shape"/>
</filter>
</defs>
</svg>
