<svg width="22" height="22" viewBox="0 0 22 22" fill="none" xmlns="http://www.w3.org/2000/svg">
<circle cx="5.50008" cy="17.4173" r="1.83333" stroke="#4B465C" stroke-width="1.5" stroke-linecap="round" stroke-linejoin="round"/>
<circle cx="5.50008" cy="17.4173" r="1.83333" stroke="white" stroke-opacity="0.2" stroke-width="1.5" stroke-linecap="round" stroke-linejoin="round"/>
<circle cx="15.5833" cy="17.4173" r="1.83333" stroke="#4B465C" stroke-width="1.5" stroke-linecap="round" stroke-linejoin="round"/>
<circle cx="15.5833" cy="17.4173" r="1.83333" stroke="white" stroke-opacity="0.2" stroke-width="1.5" stroke-linecap="round" stroke-linejoin="round"/>
<path d="M15.5834 15.5833H5.50008V2.75H3.66675" stroke="#4B465C" stroke-width="1.5" stroke-linecap="round" stroke-linejoin="round"/>
<path d="M15.5834 15.5833H5.50008V2.75H3.66675" stroke="white" stroke-opacity="0.2" stroke-width="1.5" stroke-linecap="round" stroke-linejoin="round"/>
<path d="M5.55344 3.83589C5.14028 3.80637 4.78142 4.11738 4.75191 4.53054C4.72239 4.9437 5.0334 5.30256 5.44656 5.33208L5.55344 3.83589ZM10.9511 5.72533C11.3643 5.75484 11.7232 5.44384 11.7527 5.03068C11.7822 4.61752 11.4712 4.25866 11.058 4.22914L10.9511 5.72533ZM18.2902 11.1089C18.3489 10.6988 18.0642 10.3188 17.6541 10.2601C17.2441 10.2013 16.8641 10.4861 16.8053 10.8961L18.2902 11.1089ZM17.4167 11.9173V12.6673C17.7898 12.6673 18.1062 12.393 18.1591 12.0237L17.4167 11.9173ZM5.5 11.1673C5.08579 11.1673 4.75 11.5031 4.75 11.9173C4.75 12.3315 5.08579 12.6673 5.5 12.6673V11.1673ZM5.44656 5.33208L10.9511 5.72533L11.058 4.22914L5.55344 3.83589L5.44656 5.33208ZM16.8053 10.8961L16.6742 11.8109L18.1591 12.0237L18.2902 11.1089L16.8053 10.8961ZM17.4167 11.1673H5.5V12.6673H17.4167V11.1673Z" fill="#4B465C"/>
<path d="M5.55344 3.83589C5.14028 3.80637 4.78142 4.11738 4.75191 4.53054C4.72239 4.9437 5.0334 5.30256 5.44656 5.33208L5.55344 3.83589ZM10.9511 5.72533C11.3643 5.75484 11.7232 5.44384 11.7527 5.03068C11.7822 4.61752 11.4712 4.25866 11.058 4.22914L10.9511 5.72533ZM18.2902 11.1089C18.3489 10.6988 18.0642 10.3188 17.6541 10.2601C17.2441 10.2013 16.8641 10.4861 16.8053 10.8961L18.2902 11.1089ZM17.4167 11.9173V12.6673C17.7898 12.6673 18.1062 12.393 18.1591 12.0237L17.4167 11.9173ZM5.5 11.1673C5.08579 11.1673 4.75 11.5031 4.75 11.9173C4.75 12.3315 5.08579 12.6673 5.5 12.6673V11.1673ZM5.44656 5.33208L10.9511 5.72533L11.058 4.22914L5.55344 3.83589L5.44656 5.33208ZM16.8053 10.8961L16.6742 11.8109L18.1591 12.0237L18.2902 11.1089L16.8053 10.8961ZM17.4167 11.1673H5.5V12.6673H17.4167V11.1673Z" fill="white" fill-opacity="0.2"/>
<path d="M13.75 4.75C13.3358 4.75 13 5.08579 13 5.5C13 5.91421 13.3358 6.25 13.75 6.25V4.75ZM19.25 6.25C19.6642 6.25 20 5.91421 20 5.5C20 5.08579 19.6642 4.75 19.25 4.75V6.25ZM17.25 2.75C17.25 2.33579 16.9142 2 16.5 2C16.0858 2 15.75 2.33579 15.75 2.75H17.25ZM15.75 8.25C15.75 8.66421 16.0858 9 16.5 9C16.9142 9 17.25 8.66421 17.25 8.25H15.75ZM13.75 6.25H19.25V4.75H13.75V6.25ZM15.75 2.75V8.25H17.25V2.75H15.75Z" fill="#4B465C"/>
<path d="M13.75 4.75C13.3358 4.75 13 5.08579 13 5.5C13 5.91421 13.3358 6.25 13.75 6.25V4.75ZM19.25 6.25C19.6642 6.25 20 5.91421 20 5.5C20 5.08579 19.6642 4.75 19.25 4.75V6.25ZM17.25 2.75C17.25 2.33579 16.9142 2 16.5 2C16.0858 2 15.75 2.33579 15.75 2.75H17.25ZM15.75 8.25C15.75 8.66421 16.0858 9 16.5 9C16.9142 9 17.25 8.66421 17.25 8.25H15.75ZM13.75 6.25H19.25V4.75H13.75V6.25ZM15.75 2.75V8.25H17.25V2.75H15.75Z" fill="white" fill-opacity="0.2"/>
</svg>
