<svg width="38" height="38" viewBox="0 0 38 38" fill="none" xmlns="http://www.w3.org/2000/svg">
<circle cx="19" cy="19" r="19" fill="white"/>
<path d="M16.5999 12.375L14.8499 14.125H11.5V24.625H25.5V14.125H22.1502L20.4002 12.375H16.5999ZM15.875 10.625H21.125L22.875 12.375H26.375C26.8583 12.375 27.25 12.7668 27.25 13.25V25.5C27.25 25.9833 26.8583 26.375 26.375 26.375H10.625C10.1418 26.375 9.75 25.9833 9.75 25.5V13.25C9.75 12.7668 10.1418 12.375 10.625 12.375H14.125L15.875 10.625ZM18.5 23.75C15.8421 23.75 13.6875 21.5954 13.6875 18.9375C13.6875 16.2796 15.8421 14.125 18.5 14.125C21.1579 14.125 23.3125 16.2796 23.3125 18.9375C23.3125 21.5954 21.1579 23.75 18.5 23.75ZM18.5 22C20.1914 22 21.5625 20.6289 21.5625 18.9375C21.5625 17.2461 20.1914 15.875 18.5 15.875C16.8086 15.875 15.4375 17.2461 15.4375 18.9375C15.4375 20.6289 16.8086 22 18.5 22Z" fill="black"/>
</svg>
