<svg width="24" height="24" viewBox="0 0 24 24" fill="none" xmlns="http://www.w3.org/2000/svg">
<circle cx="12" cy="12" r="9" stroke="#4B465C" stroke-width="1.5" stroke-linecap="round" stroke-linejoin="round"/>
<circle cx="12" cy="12" r="9" stroke="white" stroke-opacity="0.2" stroke-width="1.5" stroke-linecap="round" stroke-linejoin="round"/>
<path d="M14.8 8.99992C14.4309 8.35959 13.7387 7.97505 13 7.99992H11C9.89543 7.99992 9 8.89535 9 9.99992C9 11.1045 9.89543 11.9999 11 11.9999H13C14.1046 11.9999 15 12.8953 15 13.9999C15 15.1045 14.1046 15.9999 13 15.9999H11C10.2613 16.0248 9.56913 15.6402 9.2 14.9999" stroke="#4B465C" stroke-width="1.5" stroke-linecap="round" stroke-linejoin="round"/>
<path d="M14.8 8.99992C14.4309 8.35959 13.7387 7.97505 13 7.99992H11C9.89543 7.99992 9 8.89535 9 9.99992C9 11.1045 9.89543 11.9999 11 11.9999H13C14.1046 11.9999 15 12.8953 15 13.9999C15 15.1045 14.1046 15.9999 13 15.9999H11C10.2613 16.0248 9.56913 15.6402 9.2 14.9999" stroke="white" stroke-opacity="0.2" stroke-width="1.5" stroke-linecap="round" stroke-linejoin="round"/>
<path d="M12.75 6C12.75 5.58579 12.4142 5.25 12 5.25C11.5858 5.25 11.25 5.58579 11.25 6H12.75ZM11.25 8C11.25 8.41421 11.5858 8.75 12 8.75C12.4142 8.75 12.75 8.41421 12.75 8H11.25ZM12.75 16C12.75 15.5858 12.4142 15.25 12 15.25C11.5858 15.25 11.25 15.5858 11.25 16H12.75ZM11.25 18C11.25 18.4142 11.5858 18.75 12 18.75C12.4142 18.75 12.75 18.4142 12.75 18H11.25ZM11.25 6V8H12.75V6H11.25ZM11.25 16V18H12.75V16H11.25Z" fill="#4B465C"/>
<path d="M12.75 6C12.75 5.58579 12.4142 5.25 12 5.25C11.5858 5.25 11.25 5.58579 11.25 6H12.75ZM11.25 8C11.25 8.41421 11.5858 8.75 12 8.75C12.4142 8.75 12.75 8.41421 12.75 8H11.25ZM12.75 16C12.75 15.5858 12.4142 15.25 12 15.25C11.5858 15.25 11.25 15.5858 11.25 16H12.75ZM11.25 18C11.25 18.4142 11.5858 18.75 12 18.75C12.4142 18.75 12.75 18.4142 12.75 18H11.25ZM11.25 6V8H12.75V6H11.25ZM11.25 16V18H12.75V16H11.25Z" fill="white" fill-opacity="0.2"/>
</svg>
