<svg width="54" height="54" viewBox="0 0 54 54" fill="none" xmlns="http://www.w3.org/2000/svg">
<path fill-rule="evenodd" clip-rule="evenodd" d="M27 54C41.9117 54 54 41.9117 54 27C54 12.0883 41.9117 0 27 0C12.0883 0 0 12.0883 0 27C0 41.9117 12.0883 54 27 54ZM27 50C39.7025 50 50 39.7025 50 27C50 14.2975 39.7025 4 27 4C14.2975 4 4 14.2975 4 27C4 39.7025 14.2975 50 27 50Z" fill="#F1B6B6"/>
<path d="M19.4142 16.5858C18.6332 15.8047 17.3668 15.8047 16.5858 16.5858C15.8047 17.3668 15.8047 18.6332 16.5858 19.4142L19.4142 16.5858ZM34.5858 37.4142C35.3668 38.1953 36.6332 38.1953 37.4142 37.4142C38.1953 36.6332 38.1953 35.3668 37.4142 34.5858L34.5858 37.4142ZM37.4142 19.4142C38.1953 18.6332 38.1953 17.3668 37.4142 16.5858C36.6332 15.8047 35.3668 15.8047 34.5858 16.5858L37.4142 19.4142ZM16.5858 34.5858C15.8047 35.3668 15.8047 36.6332 16.5858 37.4142C17.3668 38.1953 18.6332 38.1953 19.4142 37.4142L16.5858 34.5858ZM16.5858 19.4142L34.5858 37.4142L37.4142 34.5858L19.4142 16.5858L16.5858 19.4142ZM34.5858 16.5858L16.5858 34.5858L19.4142 37.4142L37.4142 19.4142L34.5858 16.5858Z" fill="#EA5455"/>
<path d="M19.4142 16.5858C18.6332 15.8047 17.3668 15.8047 16.5858 16.5858C15.8047 17.3668 15.8047 18.6332 16.5858 19.4142L19.4142 16.5858ZM34.5858 37.4142C35.3668 38.1953 36.6332 38.1953 37.4142 37.4142C38.1953 36.6332 38.1953 35.3668 37.4142 34.5858L34.5858 37.4142ZM37.4142 19.4142C38.1953 18.6332 38.1953 17.3668 37.4142 16.5858C36.6332 15.8047 35.3668 15.8047 34.5858 16.5858L37.4142 19.4142ZM16.5858 34.5858C15.8047 35.3668 15.8047 36.6332 16.5858 37.4142C17.3668 38.1953 18.6332 38.1953 19.4142 37.4142L16.5858 34.5858ZM16.5858 19.4142L34.5858 37.4142L37.4142 34.5858L19.4142 16.5858L16.5858 19.4142ZM34.5858 16.5858L16.5858 34.5858L19.4142 37.4142L37.4142 19.4142L34.5858 16.5858Z" fill="white" fill-opacity="0.2"/>
</svg>
