<svg width="30" height="30" viewBox="0 0 30 30" fill="none" xmlns="http://www.w3.org/2000/svg">
<circle cx="15" cy="15" r="15" fill="#FCDDDD"/>
<path d="M9 10.1111H21.4444" stroke="#E0665C" stroke-width="1.5" stroke-linecap="round" stroke-linejoin="round"/>
<path d="M9.77802 10.1113L10.5558 19.4447C10.5558 20.3038 11.2522 21.0002 12.1113 21.0002H18.3336C19.1927 21.0002 19.8891 20.3038 19.8891 19.4447L20.6669 10.1113" stroke="#E0665C" stroke-width="1.5" stroke-linecap="round" stroke-linejoin="round"/>
<path d="M12.8893 10.1111V7.77778C12.8893 7.34822 13.2375 7 13.6671 7H16.7782C17.2077 7 17.5559 7.34822 17.5559 7.77778V10.1111" stroke="#E0665C" stroke-width="1.5" stroke-linecap="round" stroke-linejoin="round"/>
<path d="M14.1979 13.4692C13.905 13.1763 13.4302 13.1763 13.1373 13.4692C12.8444 13.7621 12.8444 14.2369 13.1373 14.5298L14.1979 13.4692ZM16.2484 17.641C16.5413 17.9338 17.0162 17.9338 17.309 17.641C17.6019 17.3481 17.6019 16.8732 17.309 16.5803L16.2484 17.641ZM17.309 14.5298C17.6019 14.2369 17.6019 13.7621 17.309 13.4692C17.0162 13.1763 16.5413 13.1763 16.2484 13.4692L17.309 14.5298ZM13.1373 16.5803C12.8444 16.8732 12.8444 17.3481 13.1373 17.641C13.4302 17.9338 13.905 17.9338 14.1979 17.641L13.1373 16.5803ZM13.1373 14.5298L16.2484 17.641L17.309 16.5803L14.1979 13.4692L13.1373 14.5298ZM16.2484 13.4692L13.1373 16.5803L14.1979 17.641L17.309 14.5298L16.2484 13.4692Z" fill="#E0665C"/>
</svg>
