<svg width="22" height="22" viewBox="0 0 22 22" fill="none" xmlns="http://www.w3.org/2000/svg">
<path fill-rule="evenodd" clip-rule="evenodd" d="M11 13.7501L18.6863 6.03635C19.438 5.28455 19.438 4.06565 18.6863 3.31385C17.9345 2.56205 16.7155 2.56205 15.9638 3.31385L8.25 11.0001V13.7501H11Z" stroke="#00936C" stroke-width="1.5" stroke-linecap="round" stroke-linejoin="round"/>
<path fill-rule="evenodd" clip-rule="evenodd" d="M11 13.7501L18.6863 6.03635C19.438 5.28455 19.438 4.06565 18.6863 3.31385C17.9345 2.56205 16.7155 2.56205 15.9638 3.31385L8.25 11.0001V13.7501H11Z" stroke="white" stroke-opacity="0.2" stroke-width="1.5" stroke-linecap="round" stroke-linejoin="round"/>
<path d="M14.6667 4.58301L17.4167 7.33301" stroke="#00936C" stroke-width="1.5" stroke-linecap="round" stroke-linejoin="round"/>
<path d="M14.6667 4.58301L17.4167 7.33301" stroke="white" stroke-opacity="0.2" stroke-width="1.5" stroke-linecap="round" stroke-linejoin="round"/>
<path d="M8.25001 6.48047C4.92436 6.96778 2.53789 9.93821 2.77856 13.2907C3.01923 16.6433 5.80552 19.2423 9.16667 19.2496C12.3561 19.2493 15.0614 16.9071 15.5183 13.7506" stroke="#00936C" stroke-width="1.5" stroke-linecap="round" stroke-linejoin="round"/>
<path d="M8.25001 6.48047C4.92436 6.96778 2.53789 9.93821 2.77856 13.2907C3.01923 16.6433 5.80552 19.2423 9.16667 19.2496C12.3561 19.2493 15.0614 16.9071 15.5183 13.7506" stroke="white" stroke-opacity="0.2" stroke-width="1.5" stroke-linecap="round" stroke-linejoin="round"/>
</svg>
