<svg width="17" height="20" viewBox="0 0 17 20" fill="none" xmlns="http://www.w3.org/2000/svg">
<path d="M11.25 5.3H15C15.0796 5.3 15.1559 5.26839 15.2121 5.21213C15.2684 5.15587 15.3 5.07956 15.3 5C15.3 4.92043 15.2684 4.84412 15.2121 4.78786C15.1559 4.7316 15.0796 4.7 15 4.7H11.55V1.25C11.55 1.17043 11.5184 1.09413 11.4621 1.03787C11.4059 0.981607 11.3296 0.95 11.25 0.95C11.1704 0.95 11.0941 0.981607 11.0379 1.03787C10.9816 1.09413 10.95 1.17043 10.95 1.25V5C10.95 5.07956 10.9816 5.15587 11.0379 5.21213C11.0941 5.26839 11.1704 5.3 11.25 5.3Z" fill="#0F773D" stroke="#00936C" stroke-width="0.1"/>
<path d="M15.3 5.00008C15.3001 4.96066 15.2924 4.92161 15.2773 4.88517C15.2623 4.84872 15.2402 4.8156 15.2124 4.78769L15.2123 4.78764L11.4623 1.03764L11.4623 1.0376L15.25 5M15.3 5.00008L15.25 5M15.3 5.00008V5H15.25M15.3 5.00008V7.49149C15.3 7.53089 15.2922 7.5699 15.2771 7.6063C15.2621 7.6427 15.24 7.67577 15.2121 7.70363C15.1843 7.73148 15.1512 7.75358 15.1148 7.76866C15.0784 7.78373 15.0394 7.79149 15 7.79149C14.9204 7.79149 14.8441 7.75989 14.7879 7.70363C14.7316 7.64737 14.7 7.57106 14.7 7.49149V5.12421M15.25 5V7.49149C15.25 7.52432 15.2435 7.55683 15.231 7.58717C15.2184 7.6175 15.2 7.64506 15.1768 7.66827C15.1535 7.69149 15.126 7.7099 15.0957 7.72246C15.0653 7.73503 15.0328 7.74149 15 7.74149C14.9337 7.74149 14.8701 7.71516 14.8232 7.66827C14.7763 7.62139 14.75 7.5578 14.75 7.49149V5.1035M14.7 5.12421L14.7146 5.13885L14.75 5.1035M14.7 5.12421V5.1035H14.75M14.7 5.12421L11.1258 1.55H3.75C3.49804 1.55 3.25641 1.65009 3.07825 1.82825C2.90009 2.00641 2.8 2.24804 2.8 2.5V7.40849C2.8 7.48806 2.76839 7.56437 2.71213 7.62063C2.65587 7.67689 2.57956 7.70849 2.5 7.70849C2.42043 7.70849 2.34413 7.67689 2.28787 7.62063C2.23161 7.56437 2.2 7.48806 2.2 7.40849V2.5C2.2 2.08891 2.3633 1.69467 2.65398 1.40398C2.94467 1.1133 3.33891 0.95 3.75 0.95L11.2499 0.95L11.25 0.95V1L14.75 5.1035" fill="#0F773D" stroke="#00936C" stroke-width="0.1"/>
<path d="M3.75 19.05H13.75C14.1611 19.05 14.5553 18.8867 14.846 18.596C15.1367 18.3053 15.3 17.9111 15.3 17.5V13.75C15.3 13.6704 15.2684 13.5941 15.2121 13.5379C15.1559 13.4816 15.0795 13.45 15 13.45C14.9204 13.45 14.8441 13.4816 14.7879 13.5379C14.7316 13.5941 14.7 13.6704 14.7 13.75V17.5C14.7 17.752 14.5999 17.9936 14.4217 18.1717C14.2436 18.3499 14.0019 18.45 13.75 18.45H3.75C3.49804 18.45 3.25641 18.3499 3.07825 18.1717C2.90009 17.9936 2.8 17.752 2.8 17.5V13.75C2.8 13.6704 2.76839 13.5941 2.71213 13.5379C2.65587 13.4816 2.57956 13.45 2.5 13.45C2.42043 13.45 2.34413 13.4816 2.28787 13.5379C2.23161 13.5941 2.2 13.6704 2.2 13.75V17.5C2.2 17.9111 2.3633 18.3053 2.65398 18.596C2.94467 18.8867 3.33891 19.05 3.75 19.05Z" fill="#0F773D" stroke="#00936C" stroke-width="0.1"/>
<path d="M5 14.05H12.5C12.5796 14.05 12.6559 14.0184 12.7121 13.9621C12.7684 13.9059 12.8 13.8296 12.8 13.75C12.8 13.6704 12.7684 13.5941 12.7121 13.5379C12.6559 13.4816 12.5796 13.45 12.5 13.45H5C4.92043 13.45 4.84413 13.4816 4.78787 13.5379C4.73161 13.5941 4.7 13.6704 4.7 13.75C4.7 13.8296 4.73161 13.9059 4.78787 13.9621C4.84413 14.0184 4.92043 14.05 5 14.05Z" fill="#0F773D" stroke="#00936C" stroke-width="0.1"/>
<path d="M5 16.55H8.75C8.82956 16.55 8.90587 16.5184 8.96213 16.4621C9.01839 16.4059 9.05 16.3296 9.05 16.25C9.05 16.1704 9.01839 16.0941 8.96213 16.0379C8.90587 15.9816 8.82956 15.95 8.75 15.95H5C4.92043 15.95 4.84413 15.9816 4.78787 16.0379C4.73161 16.0941 4.7 16.1704 4.7 16.25C4.7 16.3296 4.73161 16.4059 4.78787 16.4621C4.84413 16.5184 4.92043 16.55 5 16.55Z" fill="#0F773D" stroke="#00936C" stroke-width="0.1"/>
<path d="M2.51033 7.10869V7.10869H2.51H2.5C2.08891 7.10869 1.69467 7.27199 1.40398 7.56268C1.1133 7.85336 0.95 8.2476 0.95 8.65869V12.5002C0.95 12.9113 1.1133 13.3055 1.40398 13.5962C1.69467 13.8869 2.08891 14.0502 2.5 14.0502H15C15 14.0502 15 14.0502 15 14.0502C15.2036 14.0503 15.4052 14.0102 15.5933 13.9323C15.7814 13.8545 15.9523 13.7403 16.0963 13.5964C16.2403 13.4524 16.3545 13.2816 16.4324 13.0935C16.5104 12.9054 16.5505 12.7038 16.5505 12.5002V8.74169V8.74154C16.5493 8.33256 16.3869 7.94054 16.0987 7.65043C15.8104 7.36032 15.4194 7.1955 15.0105 7.19169L15.0103 7.19169L2.51033 7.10869ZM1.82825 7.98694C2.00641 7.80878 2.24804 7.70869 2.5 7.70869H2.50583H2.506L15.0055 7.79169C15.0056 7.79169 15.0056 7.79169 15.0056 7.79169C15.2563 7.79395 15.4961 7.89496 15.6729 8.07281C15.8497 8.25067 15.9492 8.49106 15.95 8.74184V12.5002C15.95 12.7521 15.8499 12.9938 15.6717 13.1719C15.4936 13.3501 15.2519 13.4502 15 13.4502H2.5C2.24804 13.4502 2.00641 13.3501 1.82825 13.1719C1.65009 12.9938 1.55 12.7521 1.55 12.5002V8.65869C1.55 8.40673 1.65009 8.1651 1.82825 7.98694Z" fill="#0F773D" stroke="#00936C" stroke-width="0.1"/>
<path d="M6.3719 11.8503H6.42214L6.4219 11.8L6.4199 11.3855L6.41966 11.3358H6.3699H5.1699V10.6898H6.1119H6.1619V10.6398V10.2533V10.2033H6.1119H5.1699V9.58078H6.3544H6.4044V9.53078V9.13428V9.08428H6.3544H4.6394H4.5894V9.13428V11.8003V11.8503H4.6394H6.3719Z" fill="#0F773D" stroke="#00936C" stroke-width="0.1"/>
<path d="M8.25892 11.8501H8.34647L8.30198 11.7747L7.65874 10.6844L8.19931 9.85494L8.24968 9.77764H8.15742H7.78442H7.75697L7.74223 9.8008L7.41821 10.3101L7.13507 9.80325L7.12076 9.77764H7.09142H6.58142H6.49356L6.53843 9.85317L7.09109 10.7835L6.45094 11.773L6.40102 11.8501H6.49292H6.87592H6.90341L6.91814 11.8269L7.33006 11.1779L7.7067 11.8253L7.72116 11.8501H7.74992H8.25892Z" fill="#0F773D" stroke="#00936C" stroke-width="0.1"/>
<path d="M9.62499 11.026L9.58213 11.0216L9.57148 11.0633C9.541 11.1828 9.49607 11.267 9.44018 11.321C9.38543 11.3739 9.31683 11.4013 9.23067 11.4017L9.23067 11.4017L9.22917 11.4017C9.17816 11.4035 9.1276 11.3917 9.08269 11.3674C9.03778 11.3432 9.00015 11.3074 8.97368 11.2638L8.97371 11.2637L8.97263 11.2621C8.90927 11.1663 8.87443 11.0239 8.87445 10.8287L8.87441 10.8272C8.86983 10.6695 8.90328 10.513 8.97195 10.371L8.97195 10.371L8.97232 10.3702C8.99691 10.3169 9.0368 10.2722 9.08691 10.2418C9.13701 10.2113 9.19506 10.1965 9.25364 10.1991L9.25364 10.1992H9.25593C9.34937 10.1992 9.41749 10.2264 9.46643 10.276C9.51642 10.3268 9.55206 10.4068 9.56789 10.523L9.57464 10.5725L9.62422 10.5657L10.0072 10.5132L10.0589 10.5062L10.0496 10.4548C10.0073 10.2211 9.91902 10.0395 9.7802 9.91664C9.64115 9.79353 9.45721 9.73436 9.23382 9.7342C9.10439 9.72969 8.97566 9.75521 8.85774 9.80879C8.73961 9.86246 8.63554 9.94282 8.55373 10.0435C8.38529 10.2478 8.30257 10.5049 8.30243 10.8109C8.29385 11.0821 8.37416 11.3487 8.53114 11.5701L8.53114 11.5701L8.53158 11.5707C8.68822 11.7848 8.91309 11.891 9.19918 11.8912C9.39873 11.897 9.59363 11.8302 9.74772 11.7033L9.74772 11.7033L9.74814 11.7029C9.90113 11.5741 10.0009 11.379 10.0519 11.1245L10.0628 11.0705L10.008 11.065L9.62499 11.026Z" fill="#0F773D" stroke="#00936C" stroke-width="0.1"/>
<path d="M11.6068 11.1216L11.5668 11.1161L11.553 11.154C11.5168 11.2536 11.4654 11.3245 11.4006 11.3707C11.336 11.4168 11.254 11.4413 11.1516 11.4411L11.1516 11.4411L11.1498 11.4412C11.0594 11.4443 10.9708 11.4161 10.8988 11.3613L10.8988 11.3613C10.8369 11.3143 10.7908 11.2496 10.7665 11.1758C10.7437 11.0915 10.7316 11.0048 10.7302 10.9176H12.031H12.081V10.8676L12.081 10.8176L12.081 10.8173C12.0793 10.5068 12.0002 10.2479 11.8398 10.0447C11.6768 9.83811 11.4446 9.73662 11.1505 9.73662C10.849 9.73662 10.6064 9.83922 10.429 10.0472C10.2534 10.253 10.167 10.5117 10.167 10.8196C10.167 11.1423 10.253 11.4041 10.43 11.5992C10.607 11.7943 10.8407 11.8909 11.1261 11.8911C11.3407 11.8989 11.5517 11.8342 11.725 11.7075L11.725 11.7075L11.7255 11.7071C11.8811 11.5906 11.9944 11.4263 12.0481 11.2394L12.064 11.1839L12.0068 11.1761L11.6068 11.1216ZM11.2845 10.1784C11.331 10.1988 11.3729 10.2283 11.4078 10.2651C11.4745 10.339 11.5143 10.4326 11.5216 10.531L10.7367 10.5288C10.7509 10.4279 10.7946 10.3331 10.8628 10.2565C10.8987 10.2211 10.9412 10.193 10.988 10.1741C11.0352 10.155 11.0858 10.1455 11.1367 10.1463C11.1876 10.147 11.2379 10.158 11.2845 10.1784Z" fill="#0F773D" stroke="#00936C" stroke-width="0.1"/>
<path d="M12.8854 11.8503H12.9354V11.8003V9.13428V9.08428H12.8854H12.4399H12.3899V9.13428V11.8003V11.8503H12.4399H12.8854Z" fill="#0F773D" stroke="#00936C" stroke-width="0.1"/>
</svg>
