<svg width="26" height="26" viewBox="0 0 26 26" fill="none" xmlns="http://www.w3.org/2000/svg">
<rect x="4.3335" y="4.3335" width="6.5" height="6.5" rx="1" stroke="#4B465C" stroke-width="2" stroke-linecap="round" stroke-linejoin="round"/>
<rect x="4.3335" y="4.3335" width="6.5" height="6.5" rx="1" stroke="white" stroke-opacity="0.2" stroke-width="2" stroke-linecap="round" stroke-linejoin="round"/>
<rect x="15.1665" y="4.3335" width="6.5" height="6.5" rx="1" stroke="#4B465C" stroke-width="2" stroke-linecap="round" stroke-linejoin="round"/>
<rect x="15.1665" y="4.3335" width="6.5" height="6.5" rx="1" stroke="white" stroke-opacity="0.2" stroke-width="2" stroke-linecap="round" stroke-linejoin="round"/>
<rect x="4.3335" y="15.1665" width="6.5" height="6.5" rx="1" stroke="#4B465C" stroke-width="2" stroke-linecap="round" stroke-linejoin="round"/>
<rect x="4.3335" y="15.1665" width="6.5" height="6.5" rx="1" stroke="white" stroke-opacity="0.2" stroke-width="2" stroke-linecap="round" stroke-linejoin="round"/>
<path d="M15.1665 17.4165C14.6142 17.4165 14.1665 17.8642 14.1665 18.4165C14.1665 18.9688 14.6142 19.4165 15.1665 19.4165V17.4165ZM21.6665 19.4165C22.2188 19.4165 22.6665 18.9688 22.6665 18.4165C22.6665 17.8642 22.2188 17.4165 21.6665 17.4165V19.4165ZM19.4165 15.1665C19.4165 14.6142 18.9688 14.1665 18.4165 14.1665C17.8642 14.1665 17.4165 14.6142 17.4165 15.1665H19.4165ZM17.4165 21.6665C17.4165 22.2188 17.8642 22.6665 18.4165 22.6665C18.9688 22.6665 19.4165 22.2188 19.4165 21.6665H17.4165ZM15.1665 19.4165H21.6665V17.4165H15.1665V19.4165ZM17.4165 15.1665V21.6665H19.4165V15.1665H17.4165Z" fill="#4B465C"/>
<path d="M15.1665 17.4165C14.6142 17.4165 14.1665 17.8642 14.1665 18.4165C14.1665 18.9688 14.6142 19.4165 15.1665 19.4165V17.4165ZM21.6665 19.4165C22.2188 19.4165 22.6665 18.9688 22.6665 18.4165C22.6665 17.8642 22.2188 17.4165 21.6665 17.4165V19.4165ZM19.4165 15.1665C19.4165 14.6142 18.9688 14.1665 18.4165 14.1665C17.8642 14.1665 17.4165 14.6142 17.4165 15.1665H19.4165ZM17.4165 21.6665C17.4165 22.2188 17.8642 22.6665 18.4165 22.6665C18.9688 22.6665 19.4165 22.2188 19.4165 21.6665H17.4165ZM15.1665 19.4165H21.6665V17.4165H15.1665V19.4165ZM17.4165 15.1665V21.6665H19.4165V15.1665H17.4165Z" fill="white" fill-opacity="0.2"/>
</svg>
