<svg width="35" height="34" viewBox="0 0 35 34" fill="none" xmlns="http://www.w3.org/2000/svg">
<rect x="0.5" width="34" height="34" rx="6" fill="#7367F0" fill-opacity="0.08"/>
<path d="M17.5 7C23.02 7 27.5 11.48 27.5 17C27.5 22.52 23.02 27 17.5 27C11.98 27 7.5 22.52 7.5 17C7.5 11.48 11.98 7 17.5 7ZM17.5 25C21.92 25 25.5 21.42 25.5 17C25.5 12.58 21.92 9 17.5 9C13.08 9 9.5 12.58 9.5 17C9.5 21.42 13.08 25 17.5 25ZM21.0355 12.0503L22.4497 13.4645L17.5 18.4142L16.0858 17L21.0355 12.0503Z" fill="#7367F0"/>
</svg>
