<svg width="18" height="18" viewBox="0 0 18 18" fill="none" xmlns="http://www.w3.org/2000/svg">
<path fill-rule="evenodd" clip-rule="evenodd" d="M9 18C13.9706 18 18 13.9706 18 9C18 4.02944 13.9706 0 9 0C4.02944 0 0 4.02944 0 9C0 13.9706 4.02944 18 9 18ZM8.99997 16.6666C13.2342 16.6666 16.6666 13.2342 16.6666 8.99997C16.6666 4.76578 13.2342 1.3333 8.99997 1.3333C4.76578 1.3333 1.3333 4.76578 1.3333 8.99997C1.3333 13.2342 4.76578 16.6666 8.99997 16.6666Z" fill="#4B465C"/>
<path d="M6.70686 5.29289C6.31634 4.90237 5.68317 4.90237 5.29265 5.29289C4.90212 5.68342 4.90212 6.31658 5.29265 6.70711L6.70686 5.29289ZM11.2926 12.7071C11.6832 13.0976 12.3163 13.0976 12.7069 12.7071C13.0974 12.3166 13.0974 11.6834 12.7069 11.2929L11.2926 12.7071ZM12.7069 6.70711C13.0974 6.31658 13.0974 5.68342 12.7069 5.29289C12.3163 4.90237 11.6832 4.90237 11.2926 5.29289L12.7069 6.70711ZM5.29265 11.2929C4.90212 11.6834 4.90212 12.3166 5.29265 12.7071C5.68317 13.0976 6.31634 13.0976 6.70686 12.7071L5.29265 11.2929ZM5.29265 6.70711L11.2926 12.7071L12.7069 11.2929L6.70686 5.29289L5.29265 6.70711ZM11.2926 5.29289L5.29265 11.2929L6.70686 12.7071L12.7069 6.70711L11.2926 5.29289Z" fill="#4B465C"/>
<path d="M6.70686 5.29289C6.31634 4.90237 5.68317 4.90237 5.29265 5.29289C4.90212 5.68342 4.90212 6.31658 5.29265 6.70711L6.70686 5.29289ZM11.2926 12.7071C11.6832 13.0976 12.3163 13.0976 12.7069 12.7071C13.0974 12.3166 13.0974 11.6834 12.7069 11.2929L11.2926 12.7071ZM12.7069 6.70711C13.0974 6.31658 13.0974 5.68342 12.7069 5.29289C12.3163 4.90237 11.6832 4.90237 11.2926 5.29289L12.7069 6.70711ZM5.29265 11.2929C4.90212 11.6834 4.90212 12.3166 5.29265 12.7071C5.68317 13.0976 6.31634 13.0976 6.70686 12.7071L5.29265 11.2929ZM5.29265 6.70711L11.2926 12.7071L12.7069 11.2929L6.70686 5.29289L5.29265 6.70711ZM11.2926 5.29289L5.29265 11.2929L6.70686 12.7071L12.7069 6.70711L11.2926 5.29289Z" fill="white" fill-opacity="0.2"/>
</svg>
