<svg width="18" height="18" viewBox="0 0 18 18" fill="none" xmlns="http://www.w3.org/2000/svg">
<path d="M8.68036 0C8.58994 0 8.58994 0 8.49952 0C8.49952 0 8.49952 0 8.4091 0C8.22825 0 8.13783 0 7.95699 0L8.13783 1.8C8.49952 1.8 8.95162 1.8 9.3133 1.8C12.9301 2.07 15.914 4.95 16.0948 8.64C16.2757 12.6 13.2014 16.02 9.22288 16.2C9.22288 16.2 9.13246 16.2 9.04204 16.2C8.77078 16.2 8.4091 16.2 8.13783 16.2L8.04741 18C8.4091 18 8.77078 18 9.22288 18C9.3133 18 9.49414 18 9.58456 18C14.4673 17.64 18.1745 13.5 17.9937 8.64C17.8128 4.05 14.1056 0.45 9.58456 0.0899999C9.40372 0.0899999 9.3133 0.0899999 9.13246 0.0899999C8.95162 -8.71718e-08 8.8612 0 8.68036 0ZM5.51564 0.63C5.06354 0.9 4.61144 1.08 4.15934 1.35L5.15396 2.88C5.42522 2.7 5.7869 2.52 6.14859 2.34L5.51564 0.63ZM2.17009 3.06C1.80841 3.42 1.53715 3.87 1.26589 4.23L2.80303 5.13C2.98387 4.86 3.25513 4.59 3.5264 4.23L2.17009 3.06ZM12.0259 5.76L7.86657 10.44L5.42522 8.55L4.4306 10.08L8.22826 12.96L13.4726 7.02L12.0259 5.76ZM0.271261 6.3C0.0904206 6.75 0 7.29 0 7.74L1.80841 8.01C1.89883 7.65 1.89883 7.2 2.07967 6.84L0.271261 6.3ZM1.80841 9.9L0 10.08C0 10.17 0 10.26 0 10.35C0.0904204 10.71 0.180841 11.16 0.271261 11.52L1.98925 10.98C1.89883 10.71 1.80841 10.35 1.80841 9.99V9.9ZM2.80303 12.78L1.26589 13.77C1.53715 14.22 1.80841 14.58 2.17009 14.94L3.5264 13.77C3.25513 13.41 2.98387 13.14 2.80303 12.78ZM5.15396 15.12L4.15934 16.65C4.61144 16.92 5.06354 17.1 5.51564 17.37L6.23901 15.75C5.7869 15.48 5.42522 15.3 5.15396 15.12Z" fill="#4B465C"/>
</svg>
