<svg width="32" height="41" viewBox="0 0 32 41" fill="none" xmlns="http://www.w3.org/2000/svg">
<path d="M4.83255 27.9242H0.00012207V27.935V31.0702V37.6215V40.7567V40.7675H3.13526V40.7567H4.82174H7.95688V37.6215V31.0702V27.935H4.83255V27.9242ZM3.13526 37.6107V31.0594H4.82174V37.6107H3.13526Z" fill="#6E7B6C"/>
<path d="M32.0002 35.8378V27.8486H31.1786H28.8651H27.1786H24.5624H24.0435V37.5351H22.2921V30.9838V27.8486H19.157H17.4056H14.2705V30.9838V32.6919H12.6489V27.8486H9.51373V40.6811H12.6489V35.8378H14.2705V37.5459V40.6811H17.4056H19.157H22.2921H24.0435H27.1786H32.0002V37.5459H27.1786V30.9946H28.8651V35.8378H32.0002ZM17.4056 37.5459V30.9946H19.157V37.5459H17.4056Z" fill="#6E7B6C"/>
<path d="M32.0001 23.1894H11.9677V26.3246H32.0001V23.1894Z" fill="#00936C"/>
<path d="M31.892 13.9567L23.2001 9.61078L14.4974 13.9567V16.8648H17.3947V15.7513L23.2001 12.8432L28.865 15.6756V18.5189H11.6001V16.9946V15.5243V13.8486H0.00012207V13.9567V16.8648V16.9946H8.46499V18.5189H0.00012207V18.5405V20.3243V21.654V23.1892V26.3243H5.79472V26.0108V24.3351V23.1892H3.13526V21.654H32.0001" fill="#6E7B6C"/>
<path d="M10.4326 23.1894H7.29742V26.3246H10.4326V23.1894Z" fill="#6E7B6C"/>
<path d="M6.16217 4.07568V3.42703C6.16217 3.2973 6.08649 3.18919 5.97839 3.13513C6.00001 3.1027 6.01082 3.07027 6.01082 3.02703V2.62703C6.11893 2.62703 6.22703 2.60541 6.34595 2.58378C6.72433 2.47568 7.02704 2.23784 7.22163 1.92432C7.08109 2.02162 6.92974 2.0973 6.75676 2.14054C5.97839 2.34595 5.17839 1.89189 4.97298 1.12432C4.86487 0.735135 4.92974 0.335135 5.12433 0C4.63785 0.345946 4.40001 0.962162 4.56217 1.55676C4.6919 2.02162 5.02703 2.36757 5.44866 2.52973C5.44866 2.54054 5.44866 2.55135 5.44866 2.57297V3.02703C5.44866 3.05946 5.45947 3.1027 5.48109 3.13513C5.37298 3.18919 5.30812 3.2973 5.30812 3.42703V4.08649C2.46487 4.36757 0.151359 6.81081 0.0756836 9.80541V12.7568H3.21082V9.80541C3.03785 8.12973 4.31352 6.72432 5.75136 6.65946C7.26487 6.59459 8.71352 8.03243 8.54055 9.80541V12.7568H11.6757V9.80541C11.5784 6.7027 9.0919 4.23784 6.16217 4.07568Z" fill="#00936C"/>
</svg>
