<svg width="22" height="22" viewBox="0 0 22 22" fill="none" xmlns="http://www.w3.org/2000/svg">
<circle cx="11" cy="10.083" r="2.75" stroke="white" stroke-width="1.5" stroke-linecap="round" stroke-linejoin="round"/>
<circle cx="11" cy="10.083" r="2.75" stroke="white" stroke-opacity="0.2" stroke-width="1.5" stroke-linecap="round" stroke-linejoin="round"/>
<path fill-rule="evenodd" clip-rule="evenodd" d="M16.1857 15.2686L12.2962 19.1581C11.5804 19.8732 10.4206 19.8732 9.70483 19.1581L5.8145 15.2686C2.95076 12.4048 2.95084 7.76162 5.81468 4.89784C8.67851 2.03405 13.3217 2.03405 16.1855 4.89784C19.0493 7.76162 19.0494 12.4048 16.1857 15.2686V15.2686Z" stroke="white" stroke-width="1.5" stroke-linecap="round" stroke-linejoin="round"/>
<path fill-rule="evenodd" clip-rule="evenodd" d="M16.1857 15.2686L12.2962 19.1581C11.5804 19.8732 10.4206 19.8732 9.70483 19.1581L5.8145 15.2686C2.95076 12.4048 2.95084 7.76162 5.81468 4.89784C8.67851 2.03405 13.3217 2.03405 16.1855 4.89784C19.0493 7.76162 19.0494 12.4048 16.1857 15.2686V15.2686Z" stroke="white" stroke-opacity="0.2" stroke-width="1.5" stroke-linecap="round" stroke-linejoin="round"/>
</svg>
