<svg width="120" height="26" viewBox="0 0 120 26" fill="none" xmlns="http://www.w3.org/2000/svg">
<path d="M1.416 4.36C1.416 3.592 1.688 3.008 2.232 2.608C2.776 2.192 3.576 1.984 4.632 1.984V9.136H11.808V4.36C11.808 3.576 12.08 2.984 12.624 2.584C13.184 2.184 13.984 1.984 15.024 1.984V16.84C15.024 17.608 14.744 18.2 14.184 18.616C13.64 19.016 12.848 19.216 11.808 19.216V11.92H4.632V16.84C4.632 17.608 4.352 18.2 3.792 18.616C3.248 19.016 2.456 19.216 1.416 19.216V4.36ZM21.8297 19.216C21.0137 19.216 20.2617 19.056 19.5737 18.736C18.9017 18.416 18.3577 17.96 17.9417 17.368C17.5417 16.76 17.3417 16.04 17.3417 15.208C17.3417 14.376 17.5577 13.656 17.9897 13.048C18.4217 12.424 19.0057 11.952 19.7417 11.632C20.4937 11.296 21.3177 11.128 22.2137 11.128C22.9497 11.128 23.6057 11.248 24.1817 11.488C24.7737 11.712 25.3177 12.056 25.8137 12.52L25.9337 12.4C25.7897 12.256 25.5417 12.04 25.1897 11.752V11.272C25.1897 10.616 24.9577 10.096 24.4937 9.712C24.0297 9.328 23.3817 9.136 22.5497 9.136C21.0617 9.136 19.9657 9.68 19.2617 10.768C18.9097 10.656 18.6137 10.48 18.3737 10.24C18.1337 9.984 18.0137 9.712 18.0137 9.424C18.0137 8.944 18.2297 8.504 18.6617 8.104C19.0937 7.704 19.6777 7.384 20.4137 7.144C21.1497 6.904 21.9497 6.784 22.8137 6.784C24.5097 6.784 25.8217 7.184 26.7497 7.984C27.6777 8.768 28.1417 9.84 28.1417 11.2V17.2C28.1417 17.904 27.9177 18.416 27.4697 18.736C27.0217 19.056 26.3177 19.216 25.3577 19.216V18.232C25.6297 17.96 25.8137 17.76 25.9097 17.632L25.8137 17.512C25.2857 18.072 24.7177 18.496 24.1097 18.784C23.5177 19.072 22.7577 19.216 21.8297 19.216ZM22.5977 17.032C23.4297 17.032 24.0777 16.872 24.5417 16.552C25.0057 16.232 25.2377 15.776 25.2377 15.184C25.2377 14.608 24.9977 14.152 24.5177 13.816C24.0537 13.48 23.4217 13.312 22.6217 13.312C21.8857 13.312 21.3017 13.48 20.8697 13.816C20.4537 14.136 20.2457 14.592 20.2457 15.184C20.2457 15.792 20.4537 16.256 20.8697 16.576C21.2857 16.88 21.8617 17.032 22.5977 17.032ZM33.6463 5.656C33.0703 5.656 32.5903 5.488 32.2063 5.152C31.8383 4.8 31.6543 4.352 31.6543 3.808C31.6543 3.28 31.8383 2.848 32.2063 2.512C32.5903 2.16 33.0703 1.984 33.6463 1.984C34.2223 1.984 34.6943 2.16 35.0623 2.512C35.4463 2.848 35.6383 3.28 35.6383 3.808C35.6383 4.352 35.4463 4.8 35.0623 5.152C34.6943 5.488 34.2223 5.656 33.6463 5.656ZM30.8143 24.016C29.9023 24.016 29.1583 23.8 28.5823 23.368C28.0223 22.936 27.7423 22.408 27.7423 21.784C27.7423 21.24 27.9503 20.848 28.3663 20.608C28.8463 21.152 29.5103 21.424 30.3583 21.424C30.9503 21.424 31.3903 21.264 31.6783 20.944C31.9823 20.64 32.1343 20.208 32.1343 19.648V8.608C32.1343 7.952 32.3823 7.488 32.8783 7.216C33.3743 6.928 34.1263 6.784 35.1343 6.784V19.672C35.1343 20.488 34.9503 21.224 34.5823 21.88C34.2303 22.536 33.7263 23.056 33.0703 23.44C32.4143 23.824 31.6623 24.016 30.8143 24.016ZM42.5994 5.656C42.0234 5.656 41.5434 5.488 41.1594 5.152C40.7914 4.8 40.6074 4.352 40.6074 3.808C40.6074 3.28 40.7914 2.848 41.1594 2.512C41.5434 2.16 42.0234 1.984 42.5994 1.984C43.1754 1.984 43.6474 2.16 44.0154 2.512C44.3994 2.848 44.5914 3.28 44.5914 3.808C44.5914 4.352 44.3994 4.8 44.0154 5.152C43.6474 5.488 43.1754 5.656 42.5994 5.656ZM39.7674 24.016C38.8554 24.016 38.1114 23.8 37.5354 23.368C36.9754 22.936 36.6954 22.408 36.6954 21.784C36.6954 21.24 36.9034 20.848 37.3194 20.608C37.7994 21.152 38.4634 21.424 39.3114 21.424C39.9034 21.424 40.3434 21.264 40.6314 20.944C40.9354 20.64 41.0874 20.208 41.0874 19.648V8.608C41.0874 7.952 41.3354 7.488 41.8314 7.216C42.3274 6.928 43.0794 6.784 44.0874 6.784V19.672C44.0874 20.488 43.9034 21.224 43.5354 21.88C43.1834 22.536 42.6794 23.056 42.0234 23.44C41.3674 23.824 40.6154 24.016 39.7674 24.016Z" fill="#6E7B6C"/>
<path d="M54.3838 19.216C53.0398 19.216 51.8238 18.944 50.7358 18.4C49.6638 17.856 48.8238 17.104 48.2158 16.144C47.6078 15.184 47.3038 14.096 47.3038 12.88V4.36C47.3038 3.592 47.5758 3.008 48.1198 2.608C48.6638 2.192 49.4638 1.984 50.5198 1.984V12.88C50.5198 13.952 50.8718 14.808 51.5758 15.448C52.2798 16.088 53.2158 16.408 54.3838 16.408C55.5518 16.408 56.4878 16.088 57.1918 15.448C57.8958 14.808 58.2478 13.952 58.2478 12.88V4.36C58.2478 3.576 58.5198 2.984 59.0638 2.584C59.6078 2.184 60.4078 1.984 61.4638 1.984V12.88C61.4638 14.096 61.1598 15.184 60.5518 16.144C59.9438 17.104 59.0958 17.856 58.0078 18.4C56.9358 18.944 55.7278 19.216 54.3838 19.216ZM64.1582 9.088C64.1582 8.352 64.3902 7.784 64.8542 7.384C65.3182 6.984 66.0222 6.784 66.9662 6.784V8.224C66.6782 8.576 66.4862 8.832 66.3902 8.992L66.5582 9.088C67.0542 8.336 67.5822 7.768 68.1422 7.384C68.7022 6.984 69.3662 6.784 70.1342 6.784C71.5262 6.784 72.4862 7.464 73.0142 8.824C73.4142 8.184 73.9262 7.688 74.5502 7.336C75.1742 6.968 75.8782 6.784 76.6622 6.784C77.7502 6.784 78.6142 7.184 79.2542 7.984C79.9102 8.768 80.2382 9.776 80.2382 11.008V17.392C80.2382 18.032 79.9902 18.496 79.4942 18.784C79.0142 19.072 78.2782 19.216 77.2862 19.216V11.248C77.2862 10.656 77.1502 10.184 76.8782 9.832C76.6222 9.48 76.2222 9.304 75.6782 9.304C75.1022 9.304 74.6142 9.504 74.2142 9.904C73.8302 10.288 73.6382 10.896 73.6382 11.728V17.392C73.6382 18.032 73.3982 18.496 72.9182 18.784C72.4542 19.072 71.7262 19.216 70.7342 19.216V11.248C70.7342 10.64 70.6062 10.168 70.3502 9.832C70.0942 9.48 69.6942 9.304 69.1502 9.304C68.4782 9.304 67.9662 9.536 67.6142 10C67.2782 10.448 67.1102 11.064 67.1102 11.848V17.392C67.1102 18.032 66.8622 18.496 66.3662 18.784C65.8862 19.072 65.1502 19.216 64.1582 19.216V9.088ZM89.0762 9.376C88.1322 9.376 87.3642 9.632 86.7722 10.144C86.1802 10.64 85.8842 11.264 85.8842 12.016V17.392C85.8842 18.032 85.6442 18.496 85.1642 18.784C84.6842 19.072 83.9322 19.216 82.9082 19.216V9.088C82.9082 8.352 83.1402 7.784 83.6042 7.384C84.0842 6.984 84.8042 6.784 85.7642 6.784V8.2C85.5242 8.472 85.3322 8.736 85.1882 8.992L85.3322 9.088C86.3402 7.552 87.6042 6.784 89.1242 6.784C89.8122 6.784 90.3322 6.968 90.6842 7.336C91.0362 7.688 91.2122 8.136 91.2122 8.68C91.2122 9.096 91.1002 9.448 90.8762 9.736C90.4442 9.496 89.8442 9.376 89.0762 9.376ZM96.1734 19.216C95.3574 19.216 94.6054 19.056 93.9174 18.736C93.2454 18.416 92.7014 17.96 92.2854 17.368C91.8854 16.76 91.6854 16.04 91.6854 15.208C91.6854 14.376 91.9014 13.656 92.3334 13.048C92.7654 12.424 93.3494 11.952 94.0854 11.632C94.8374 11.296 95.6614 11.128 96.5574 11.128C97.2934 11.128 97.9494 11.248 98.5254 11.488C99.1174 11.712 99.6614 12.056 100.157 12.52L100.277 12.4C100.133 12.256 99.8854 12.04 99.5334 11.752V11.272C99.5334 10.616 99.3014 10.096 98.8374 9.712C98.3734 9.328 97.7254 9.136 96.8934 9.136C95.4054 9.136 94.3094 9.68 93.6054 10.768C93.2534 10.656 92.9574 10.48 92.7174 10.24C92.4774 9.984 92.3574 9.712 92.3574 9.424C92.3574 8.944 92.5734 8.504 93.0054 8.104C93.4374 7.704 94.0214 7.384 94.7574 7.144C95.4934 6.904 96.2934 6.784 97.1574 6.784C98.8534 6.784 100.165 7.184 101.093 7.984C102.021 8.768 102.485 9.84 102.485 11.2V17.2C102.485 17.904 102.261 18.416 101.813 18.736C101.365 19.056 100.661 19.216 99.7014 19.216V18.232C99.9734 17.96 100.157 17.76 100.253 17.632L100.157 17.512C99.6294 18.072 99.0614 18.496 98.4534 18.784C97.8614 19.072 97.1014 19.216 96.1734 19.216ZM96.9414 17.032C97.7734 17.032 98.4214 16.872 98.8854 16.552C99.3494 16.232 99.5814 15.776 99.5814 15.184C99.5814 14.608 99.3414 14.152 98.8614 13.816C98.3974 13.48 97.7654 13.312 96.9654 13.312C96.2294 13.312 95.6454 13.48 95.2134 13.816C94.7974 14.136 94.5894 14.592 94.5894 15.184C94.5894 15.792 94.7974 16.256 95.2134 16.576C95.6294 16.88 96.2054 17.032 96.9414 17.032ZM105.174 4.288C105.174 3.552 105.43 2.984 105.942 2.584C106.454 2.184 107.19 1.984 108.15 1.984V8.224C107.942 8.448 107.75 8.704 107.574 8.992L107.718 9.088C108.822 7.552 110.23 6.784 111.942 6.784C112.758 6.784 113.478 6.968 114.102 7.336C114.726 7.704 115.206 8.208 115.542 8.848C115.894 9.488 116.07 10.208 116.07 11.008V17.392C116.07 18.032 115.822 18.496 115.326 18.784C114.83 19.072 114.078 19.216 113.07 19.216V11.44C113.07 10.832 112.886 10.336 112.518 9.952C112.166 9.568 111.646 9.376 110.958 9.376C110.142 9.376 109.47 9.632 108.942 10.144C108.414 10.64 108.15 11.264 108.15 12.016V17.392C108.15 18.032 107.902 18.496 107.406 18.784C106.91 19.072 106.166 19.216 105.174 19.216V4.288Z" fill="#00936C"/>
</svg>
