<svg width="137" height="137" viewBox="0 0 137 137" fill="none" xmlns="http://www.w3.org/2000/svg">
<circle cx="68.5" cy="68.5" r="68.5" fill="#EDEDED"/>
<path d="M85.8467 84.0461L79.6322 77.889C83.5124 74.4314 86.5277 72.6522 89.3559 72.3031C92.1459 71.9587 94.9524 72.9863 98.4771 75.6617C98.6332 75.7801 98.8174 75.8375 99 75.8375V79.6046C99 96.4001 95.3668 100 78.416 100H57.584C40.6331 100 37 96.4001 37 79.6046V75.2641C37.2204 75.2641 37.4408 75.1808 37.6089 75.0143L42.006 70.6574C44.9886 67.7022 47.5045 65.5275 49.779 64.0934C52.045 62.6648 54.0258 62 55.9522 62C57.8786 62 59.8594 62.6648 62.1255 64.0934C64.3999 65.5275 66.9157 67.7022 69.8982 70.6574L84.6287 85.2529C84.9653 85.586 85.5102 85.586 85.8467 85.2529C86.1829 84.9195 86.1829 84.3792 85.8467 84.0461Z" fill="#1FCD9F"/>
<path d="M37 58.5838C37 41.633 40.633 38 57.5838 38H78.4156C95.3662 38 98.9993 41.633 98.9993 58.5838V79.4156C98.9993 96.3662 95.3662 99.9993 78.4156 99.9993H57.5838C40.633 99.9993 37 96.3662 37 79.4156V58.5838Z" stroke="#323232" stroke-width="5"/>
<path d="M85.2372 84.5069L70.5068 69.7765C58.5209 57.7906 53.383 57.7906 41.3971 69.7765L37 74.1737" stroke="#323232" stroke-width="5" stroke-linecap="round"/>
<path d="M99.0001 74.7523C91.7902 69.2292 86.8682 70.0049 79.0156 77.0797" stroke="#323232" stroke-width="5" stroke-linecap="round"/>
<path d="M85.2218 55.2218C85.2218 57.124 83.6798 58.6662 81.7774 58.6662C79.8751 58.6662 78.333 57.124 78.333 55.2218C78.333 53.3195 79.8751 51.7773 81.7774 51.7773C83.6798 51.7773 85.2218 53.3195 85.2218 55.2218Z" stroke="#323232" stroke-width="5"/>
</svg>
