<svg width="163" height="163" viewBox="0 0 163 163" fill="none" xmlns="http://www.w3.org/2000/svg">
<rect width="163" height="163" fill="#EDEDED"/>
<path d="M81.2797 131C81.1864 131 81.0931 131 80.9997 131C80.9064 131 80.8131 131 80.7197 131C80.8142 130.907 80.9075 130.814 80.9997 130.72C81.0919 130.814 81.1853 130.907 81.2797 131Z" fill="#1FCD9F"/>
<path fill-rule="evenodd" clip-rule="evenodd" d="M114.298 118.301C114.321 117.907 114.333 117.511 114.333 117.111C114.333 106.372 105.628 97.6667 94.8889 97.6667H67.1111C56.3722 97.6667 47.6667 106.372 47.6667 117.111C47.6667 117.511 47.6787 117.907 47.7024 118.301C37.4525 109.144 31 95.8255 31 81C31 53.3858 53.3858 31 81 31C108.614 31 131 53.3858 131 81C131 95.8255 124.547 109.144 114.298 118.301ZM81 81C90.205 81 97.6667 73.5383 97.6667 64.3333C97.6667 55.1286 90.205 47.6667 81 47.6667C71.795 47.6667 64.3333 55.1286 64.3333 64.3333C64.3333 73.5383 71.795 81 81 81Z" fill="#29E1B0"/>
<path d="M114.333 118.268C114.333 109.27 107.824 97.6667 97.6667 97.6667H64.3333C54.1762 97.6667 47.6667 109.27 47.6667 118.268M31 81C31 53.3858 53.3858 31 81 31C108.614 31 131 53.3858 131 81C131 108.614 108.614 131 81 131C53.3858 131 31 108.614 31 81ZM97.6667 64.3333C97.6667 73.5383 90.205 81 81 81C71.795 81 64.3333 73.5383 64.3333 64.3333C64.3333 55.1286 71.795 47.6667 81 47.6667C90.205 47.6667 97.6667 55.1286 97.6667 64.3333Z" stroke="#4B465C" stroke-width="6"/>
</svg>
