<svg width="34" height="34" viewBox="0 0 34 34" fill="none" xmlns="http://www.w3.org/2000/svg">
<rect width="34" height="34" rx="6" fill="#00936C" fill-opacity="0.08"/>
<path d="M19.7501 10.584V12.4173" stroke="#00936C" stroke-width="1.5" stroke-linecap="round" stroke-linejoin="round"/>
<path d="M19.7501 16.084V17.9173" stroke="#00936C" stroke-width="1.5" stroke-linecap="round" stroke-linejoin="round"/>
<path d="M19.7501 21.584V23.4173" stroke="#00936C" stroke-width="1.5" stroke-linecap="round" stroke-linejoin="round"/>
<path d="M10.5833 10.584H23.4167C24.4292 10.584 25.25 11.4048 25.25 12.4173V15.1673C24.2375 15.1673 23.4167 15.9881 23.4167 17.0007C23.4167 18.0132 24.2375 18.834 25.25 18.834V21.584C25.25 22.5965 24.4292 23.4173 23.4167 23.4173H10.5833C9.57081 23.4173 8.75 22.5965 8.75 21.584V18.834C9.76252 18.834 10.5833 18.0132 10.5833 17.0007C10.5833 15.9881 9.76252 15.1673 8.75 15.1673V12.4173C8.75 11.4048 9.57081 10.584 10.5833 10.584" stroke="#00936C" stroke-width="1.5" stroke-linecap="round" stroke-linejoin="round"/>
</svg>
