<svg width="105" height="70" viewBox="0 0 105 70" fill="none" xmlns="http://www.w3.org/2000/svg">
<g filter="url(#filter0_d_694_1343)">
<path d="M52.1606 61.8974C44.8115 61.8974 37.4624 61.8974 30.0615 61.8974C25.1448 61.8974 22.1431 58.8956 22.1431 53.9789C22.1431 44.4561 22.1431 34.9333 22.1431 25.4105C22.1431 21.6842 23.5922 18.8377 26.6975 16.8193C27.0597 16.6123 27.3703 16.3017 27.7325 16.0947C29.751 15.0079 30.8896 13.6623 30.7861 11.0228C30.6308 8.43508 33.0632 6.46841 35.7027 6.3649C36.0132 6.3649 36.3755 6.31315 36.686 6.3649C40.2053 6.9342 43.1553 5.79561 45.7948 3.46666C46.7782 2.58684 47.9685 1.91403 49.0553 1.13771C51.1255 -0.259656 53.2475 -0.31141 55.3176 1.13771C57.4913 2.63859 59.665 4.19122 61.8904 5.6921C62.4597 6.05438 63.236 6.31315 63.9606 6.3649C65.5132 6.46841 67.0141 6.3649 68.5668 6.41666C71.5168 6.46841 73.8457 8.59034 73.6904 11.5403C73.5869 13.5588 74.3115 14.8009 76.0194 15.6807C76.7957 16.0947 77.4685 16.664 78.1931 17.1816C80.936 19.1482 82.2817 21.7877 82.2817 25.1517C82.2817 34.7781 82.2817 44.4561 82.2817 54.0824C82.2817 58.8438 79.2282 61.8974 74.5185 61.8974C67.0141 61.8974 59.6132 61.8974 52.1606 61.8974ZM57.9571 39.0737C61.8904 35.1403 65.6685 31.414 69.3431 27.5842C69.6536 27.2737 69.8089 26.6526 69.8089 26.1351C69.8606 21.5289 69.8606 16.9228 69.8089 12.3167C69.8089 10.6605 69.4466 10.2982 67.7387 10.2982C57.2843 10.2982 46.8817 10.2982 36.4273 10.2982C34.8229 10.2982 34.4606 10.7123 34.4606 12.3167C34.4606 16.9228 34.4089 21.5289 34.5124 26.1351C34.5124 26.7044 34.8229 27.4289 35.2369 27.843C36.8931 29.6544 38.7045 31.3105 40.4124 33.0702C42.379 35.0368 44.2939 37.0553 46.3641 39.1254C50.2457 35.4509 54.1273 35.4509 57.9571 39.0737ZM27.422 57.0842C27.422 57.2395 27.422 57.343 27.422 57.4982C28.3018 57.6535 29.1299 57.964 30.0097 57.964C44.8632 58.0158 59.665 58.0158 74.5185 57.964C75.3466 57.964 76.1746 57.6535 77.2615 57.3947C76.7957 56.9807 76.5887 56.7737 76.3817 56.5667C69.0843 51.443 61.7352 46.3193 54.4378 41.1956C52.5229 39.85 51.9018 39.9017 49.9869 41.2474C44.4492 45.1289 38.9115 49.0105 33.3738 52.8921C31.3036 54.2895 29.3887 55.6868 27.422 57.0842ZM26.1282 24.4272C26.1282 34.1053 26.1282 43.6281 26.1282 53.2026C31.8211 49.2175 37.4106 45.2324 43.0001 41.3509C37.3071 35.6579 31.7694 30.1202 26.1282 24.4272ZM78.1931 53.1509C78.1931 43.5763 78.1931 34.0535 78.1931 24.5824C72.5518 30.1719 67.0141 35.7096 61.3729 41.3509C66.9624 45.2324 72.5518 49.1658 78.1931 53.1509ZM55.6282 6.31315C52.4711 3.51841 51.2808 3.51841 48.9001 6.31315C51.1255 6.31315 53.2475 6.31315 55.6282 6.31315ZM76.2264 20.5974C75.5018 20.0798 74.7773 19.5623 73.8457 18.9412C73.8457 20.4421 73.8457 21.6324 73.8457 22.9781C74.6738 22.15 75.3983 21.4254 76.2264 20.5974ZM30.5273 22.8746C30.5273 21.6325 30.5273 20.3903 30.5273 18.9412C29.6475 19.5623 28.9229 20.0798 28.1983 20.5456C29.0264 21.3737 29.751 22.0982 30.5273 22.8746Z" fill="#4B4B4B"/>
<path d="M18.521 29.0333C18.3139 29.2403 18.0552 29.9131 17.5376 30.1719C14.2771 31.8798 10.9131 33.4842 7.60078 35.0886C6.6692 35.5544 5.78937 35.4509 5.27183 34.4675C4.75429 33.5877 5.16832 32.7079 6.25516 32.1386C9.46394 30.5342 12.7245 28.9298 15.985 27.3254C17.2788 26.7044 18.4692 27.3254 18.521 29.0333Z" fill="#00936C"/>
<path d="M99.3093 33.329C99.361 34.9851 98.1189 35.7097 96.8251 35.1404C94.4961 34.0536 92.2189 32.8632 89.89 31.7246C88.9067 31.2588 87.9233 30.793 86.9917 30.2755C85.9567 29.7579 85.5426 28.7229 86.0084 27.9465C86.5777 26.9632 87.4575 26.8597 88.3891 27.3255C91.6496 28.9299 94.9619 30.5343 98.2224 32.1904C98.74 32.5009 99.1023 33.0702 99.3093 33.329Z" fill="#00936C"/>
<path d="M98.4812 17.1815C99.6716 17.1815 100.293 17.6991 100.396 18.6307C100.5 19.614 99.9304 20.1833 98.9988 20.3903C96.1523 20.9596 93.3058 21.5289 90.4593 22.0982C89.5795 22.2535 88.6479 22.4605 87.7681 22.564C86.8365 22.6675 86.2155 22.2017 86.0084 21.3219C85.8014 20.4421 86.1637 19.6657 87.0435 19.4587C90.9769 18.6307 94.8584 17.9061 98.4812 17.1815Z" fill="#00936C"/>
<path d="M21.8843 14.2316C21.522 14.6974 21.1597 15.4219 20.7457 15.4737C20.1246 15.5772 19.1931 15.3702 18.779 14.9044C16.9159 12.7825 15.1562 10.557 13.3966 8.38335C12.8273 7.65879 12.258 6.98598 11.6887 6.26142C11.0676 5.43335 11.1194 4.60528 11.8957 3.93247C12.7238 3.31142 13.5518 3.41493 14.2246 4.19124C16.6053 7.08949 18.9343 9.98773 21.315 12.886C21.522 13.2483 21.6255 13.6623 21.8843 14.2316Z" fill="#00936C"/>
<path d="M5.89258 17.1816C8.99784 17.8026 12.2066 18.4237 15.4154 19.0448C15.9329 19.1483 16.4505 19.2518 17.0198 19.3553C18.0031 19.6141 18.5207 20.2351 18.4171 21.2184C18.3136 22.15 17.4338 22.7193 16.347 22.5123C13.604 21.9948 10.8092 21.4255 8.06626 20.9079C7.13469 20.7009 6.20311 20.5974 5.27153 20.3386C4.33995 20.0798 3.87416 19.4588 4.02942 18.4755C4.13293 17.5439 4.80574 17.1298 5.89258 17.1816Z" fill="#00936C"/>
<path d="M93.3575 5.07105C92.9952 5.74386 92.7882 6.20965 92.5294 6.57193C90.304 9.31491 88.0785 12.0579 85.8531 14.8009C85.025 15.7842 84.0417 15.9912 83.2654 15.3184C82.4891 14.6456 82.4891 13.714 83.3171 12.6789C85.5426 9.93596 87.768 7.19298 89.9934 4.45C90.511 3.7772 91.2356 3.31141 92.0636 3.72544C92.5294 4.03597 92.8917 4.60526 93.3575 5.07105Z" fill="#00936C"/>
<path d="M52.3157 34.4158C46.5709 34.4675 42.0166 30.0166 41.9648 24.3237C41.913 18.4754 46.4157 13.921 52.2122 13.921C57.8534 13.921 62.4078 18.4237 62.4078 24.1166C62.4595 29.8096 58.0087 34.364 52.3157 34.4158ZM51.2806 24.8412C50.4525 23.8579 49.8315 22.978 49.0551 22.2535C48.2271 21.4254 47.2437 21.5289 46.5192 22.2535C45.7946 23.0298 45.6911 23.9614 46.5192 24.7894C47.7095 26.0833 48.9516 27.2737 50.1937 28.464C50.9183 29.1368 51.8499 29.2921 52.5744 28.6193C54.7999 26.4973 56.9218 24.3237 59.0437 22.0465C59.3543 21.6842 59.406 20.8044 59.1473 20.3386C58.8885 19.8728 58.1639 19.3035 57.6464 19.3035C57.0253 19.3035 56.3008 19.7175 55.835 20.1315C54.3858 21.6324 52.9885 23.0815 51.2806 24.8412Z" fill="#00936C"/>
</g>
<defs>
<filter id="filter0_d_694_1343" x="0" y="0.0701904" width="104.408" height="69.8272" filterUnits="userSpaceOnUse" color-interpolation-filters="sRGB">
<feFlood flood-opacity="0" result="BackgroundImageFix"/>
<feColorMatrix in="SourceAlpha" type="matrix" values="0 0 0 0 0 0 0 0 0 0 0 0 0 0 0 0 0 0 127 0" result="hardAlpha"/>
<feOffset dy="4"/>
<feGaussianBlur stdDeviation="2"/>
<feComposite in2="hardAlpha" operator="out"/>
<feColorMatrix type="matrix" values="0 0 0 0 0 0 0 0 0 0 0 0 0 0 0 0 0 0 0.25 0"/>
<feBlend mode="normal" in2="BackgroundImageFix" result="effect1_dropShadow_694_1343"/>
<feBlend mode="normal" in="SourceGraphic" in2="effect1_dropShadow_694_1343" result="shape"/>
</filter>
</defs>
</svg>
