<svg width="16" height="18" viewBox="0 0 16 18" fill="none" xmlns="http://www.w3.org/2000/svg">
<path d="M10.45 3.75V3.8H10.5H14C14.053 3.8 14.1039 3.82107 14.1414 3.85858C14.1789 3.89609 14.2 3.94696 14.2 4C14.2 4.05304 14.1789 4.10391 14.1414 4.14142C14.1039 4.17893 14.053 4.2 14 4.2H10.25C10.197 4.2 10.1461 4.17893 10.1086 4.14142C10.0711 4.10391 10.05 4.05304 10.05 4V0.25C10.05 0.196957 10.0711 0.146086 10.1086 0.108579C10.1461 0.0710714 10.197 0.05 10.25 0.05C10.303 0.05 10.3539 0.0710714 10.3914 0.108579C10.4289 0.146086 10.45 0.196957 10.45 0.25V3.75Z" fill="#00936C" stroke="#00936C" stroke-width="0.1"/>
<path d="M13.8 4.08279V4.1035V6.4915C13.8 6.54454 13.8211 6.59542 13.8586 6.63292C13.8961 6.67043 13.947 6.6915 14 6.6915C14.0263 6.6915 14.0523 6.68633 14.0765 6.67628C14.1008 6.66623 14.1228 6.65149 14.1414 6.63292C14.16 6.61435 14.1747 6.5923 14.1848 6.56804C14.1948 6.54377 14.2 6.51777 14.2 6.4915V4V3.99991C14.2 3.97363 14.1949 3.9476 14.1849 3.9233C14.1749 3.89902 14.1602 3.87695 14.1416 3.85836L13.8 4.08279ZM13.8 4.08279L13.7854 4.06814M13.8 4.08279L13.7854 4.06814M13.7854 4.06814L10.1819 0.464645L10.1672 0.45M13.7854 4.06814L10.1672 0.45M10.1672 0.45H10.1465M10.1672 0.45H10.1465M10.1465 0.45H2.75C2.47152 0.45 2.20445 0.560625 2.00754 0.757538C1.81062 0.954452 1.7 1.22152 1.7 1.5V6.4085C1.7 6.46154 1.67893 6.51241 1.64142 6.54992C1.60391 6.58743 1.55304 6.6085 1.5 6.6085C1.44696 6.6085 1.39609 6.58743 1.35858 6.54992C1.32107 6.51241 1.3 6.46154 1.3 6.4085V1.5C1.3 1.11544 1.45277 0.746623 1.7247 0.474696C1.99662 0.202768 2.36544 0.0500004 2.75 0.0500004L10.25 0.0500005L10.2501 0.0500003M10.1465 0.45L10.2501 0.0500003M10.2501 0.0500003C10.2764 0.0499534 10.3024 0.055087 10.3267 0.0651076M10.2501 0.0500003L10.3267 0.0651076M10.3267 0.0651076C10.351 0.0751201 10.373 0.0898159 10.3916 0.108356L10.3267 0.0651076ZM10.3917 0.108401L14.1416 3.85831L10.3917 0.108401Z" fill="#00936C" stroke="#00936C" stroke-width="0.1"/>
<path d="M12.75 17.95H2.75C2.36544 17.95 1.99662 17.7972 1.7247 17.5253C1.45277 17.2534 1.3 16.8846 1.3 16.5V12.75C1.3 12.697 1.32107 12.6461 1.35858 12.6086C1.39609 12.5711 1.44696 12.55 1.5 12.55C1.55304 12.55 1.60391 12.5711 1.64142 12.6086C1.67893 12.6461 1.7 12.697 1.7 12.75V16.5C1.7 16.7785 1.81062 17.0455 2.00754 17.2425C2.20445 17.4394 2.47152 17.55 2.75 17.55H12.75C13.0285 17.55 13.2955 17.4394 13.4925 17.2425C13.6894 17.0455 13.8 16.7785 13.8 16.5V12.75C13.8 12.697 13.8211 12.6461 13.8586 12.6086C13.8961 12.5711 13.947 12.55 14 12.55C14.053 12.55 14.1039 12.5711 14.1414 12.6086C14.1789 12.6461 14.2 12.697 14.2 12.75V16.5C14.2 16.8846 14.0472 17.2534 13.7753 17.5253C13.5034 17.7972 13.1346 17.95 12.75 17.95Z" fill="#00936C" stroke="#00936C" stroke-width="0.1"/>
<path d="M11.5 12.95H4C3.94696 12.95 3.89609 12.9289 3.85858 12.8914C3.82107 12.8539 3.8 12.803 3.8 12.75C3.8 12.697 3.82107 12.6461 3.85858 12.6086C3.89609 12.5711 3.94696 12.55 4 12.55H11.5C11.553 12.55 11.6039 12.5711 11.6414 12.6086C11.6789 12.6461 11.7 12.697 11.7 12.75C11.7 12.803 11.6789 12.8539 11.6414 12.8914C11.6039 12.9289 11.553 12.95 11.5 12.95Z" fill="#00936C" stroke="#00936C" stroke-width="0.1"/>
<path d="M7.75 15.45H4C3.94696 15.45 3.89609 15.4289 3.85858 15.3914C3.82107 15.3539 3.8 15.303 3.8 15.25C3.8 15.197 3.82107 15.1461 3.85858 15.1086C3.89609 15.0711 3.94696 15.05 4 15.05H7.75C7.80304 15.05 7.85391 15.0711 7.89142 15.1086C7.92893 15.1461 7.95 15.197 7.95 15.25C7.95 15.303 7.92893 15.3539 7.89142 15.3914C7.85391 15.4289 7.80304 15.45 7.75 15.45Z" fill="#00936C" stroke="#00936C" stroke-width="0.1"/>
<path d="M14 12.9502H14H1.5C1.11544 12.9502 0.746623 12.7974 0.474695 12.5255C0.202767 12.2536 0.05 11.8848 0.05 11.5002V7.65869C0.05 7.27413 0.202767 6.90531 0.474695 6.63339C0.746623 6.36146 1.11544 6.20869 1.5 6.20869H1.50983H1.51L14.0095 6.29169C14.0096 6.29169 14.0096 6.29169 14.0096 6.29169C14.3922 6.29527 14.758 6.44948 15.0278 6.72091C15.2975 6.99236 15.4494 7.35917 15.4505 7.74184V11.5002C15.4505 11.6906 15.413 11.8792 15.3401 12.0552C15.2672 12.2311 15.1603 12.391 15.0256 12.5257C14.8909 12.6603 14.731 12.7671 14.5551 12.84C14.3791 12.9128 14.1905 12.9503 14 12.9502ZM15.05 7.74169V7.74154C15.0492 7.46445 14.9392 7.19884 14.7438 7.00231C14.5485 6.80578 14.2835 6.69418 14.0064 6.69169L14.0063 6.69169L1.50633 6.60869V6.60869H1.506H1.5C1.22152 6.60869 0.954451 6.71932 0.757538 6.91623C0.560625 7.11314 0.45 7.38021 0.45 7.65869V11.5002C0.45 11.7787 0.560625 12.0457 0.757538 12.2427C0.954451 12.4396 1.22152 12.5502 1.5 12.5502H14C14.2785 12.5502 14.5455 12.4396 14.7425 12.2427C14.9394 12.0457 15.05 11.7787 15.05 11.5002V7.74169Z" fill="#00936C" stroke="#00936C" stroke-width="0.1"/>
<path d="M4.95003 9.74329V10.7498H4.56953V8.18379H5.61153C5.91516 8.18379 6.13042 8.26031 6.26787 8.40382C6.4068 8.5498 6.48284 8.74451 6.47959 8.94602C6.47635 9.14721 6.39432 9.33909 6.25117 9.48045C6.09203 9.62459 5.88292 9.70097 5.66831 9.69332L5.66831 9.69329H5.66653H5.00003H4.95003V9.74329ZM4.95003 9.33129V9.38129H5.00003H5.56853C5.7246 9.38129 5.85197 9.34284 5.94262 9.25837L5.94262 9.25837L5.94305 9.25797C5.98735 9.21569 6.02209 9.16443 6.04494 9.10761C6.06759 9.05128 6.07802 8.99078 6.07555 8.93012C6.0772 8.81348 6.03348 8.70072 5.95358 8.61567C5.86662 8.52201 5.71802 8.48279 5.52553 8.48279H5.00003H4.95003V8.53279V9.33129Z" fill="#00936C" stroke="#00936C" stroke-width="0.1"/>
<path d="M7.34392 10.4573L7.3439 10.4073L7.3434 8.5133L7.34339 8.46329H7.3934H7.84996H7.8504V8.51329C7.95255 8.51143 8.05354 8.53522 8.14412 8.58248C8.2347 8.62973 8.31198 8.69895 8.3689 8.78379L7.34392 10.4573ZM7.34392 10.4573H7.3939H7.79358M7.34392 10.4573L8.41017 8.75555C8.55096 8.95753 8.62292 9.19949 8.6154 9.44557C8.61528 9.77093 8.53898 10.025 8.37795 10.1989C8.30483 10.2813 8.21482 10.3471 8.11403 10.3917C8.01316 10.4363 7.90387 10.4587 7.79358 10.4573M7.79358 10.4573C7.79347 10.4573 7.79336 10.4573 7.79325 10.4573L7.7939 10.4073M7.79358 10.4573H7.7939V10.4073M7.7939 10.4073H7.3939M7.7939 10.4073C7.89712 10.4086 7.99941 10.3877 8.0938 10.346C8.1882 10.3042 8.27248 10.2426 8.3409 10.1653C8.49057 10.004 8.5654 9.76379 8.5654 9.44479L7.3939 10.4073M7.3939 10.4073L7.39342 8.56329H7.3934V8.51329L7.4434 8.51328V8.51329L7.3939 10.4073ZM6.9499 10.7498V8.18379H7.8849C8.23485 8.18379 8.51219 8.3068 8.72192 8.5518C8.93328 8.79871 9.0399 9.10345 9.0399 9.46929C9.0399 9.83612 8.93017 10.1397 8.7126 10.3835C8.49758 10.6244 8.18841 10.7485 7.77732 10.7498C7.77729 10.7498 7.77727 10.7498 7.77724 10.7498L6.9499 10.7498Z" fill="#00936C" stroke="#00936C" stroke-width="0.1"/>
<path d="M10.0294 9.32429H10.9169V9.62429H10.0294H9.97941V9.67429V10.7498H9.58491V8.18379H11.1704V8.49579H10.0294H9.97941V8.54579V9.27429V9.32429H10.0294Z" fill="#00936C" stroke="#00936C" stroke-width="0.1"/>
</svg>
