<svg width="54" height="54" viewBox="0 0 54 54" fill="none" xmlns="http://www.w3.org/2000/svg">
<path d="M35.7859 16L23.3079 30.04L15.9839 24.37L13 28.96L24.393 37.6L40.1261 19.78L35.7859 16Z" fill="#00936C"/>
<path fill-rule="evenodd" clip-rule="evenodd" d="M27 54C41.9117 54 54 41.9117 54 27C54 12.0883 41.9117 0 27 0C12.0883 0 0 12.0883 0 27C0 41.9117 12.0883 54 27 54ZM27 50C39.7025 50 50 39.7025 50 27C50 14.2975 39.7025 4 27 4C14.2975 4 4 14.2975 4 27C4 39.7025 14.2975 50 27 50Z" fill="#C3E3D9"/>
</svg>
