<svg width="54" height="54" viewBox="0 0 54 54" fill="none" xmlns="http://www.w3.org/2000/svg">
<path d="M26.0411 0C25.7698 0 25.7698 0 25.4985 0C25.4985 0 25.4985 0 25.2273 0C24.6848 0 24.4135 0 23.871 0L24.4135 5.4C25.4986 5.4 26.8549 5.4 27.9399 5.4C38.7903 6.21 47.742 14.85 48.2845 25.92C48.827 37.8 39.6041 48.06 27.6686 48.6C27.6686 48.6 27.3974 48.6 27.1261 48.6C26.3123 48.6 25.2273 48.6 24.4135 48.6L24.1422 54C25.2273 54 26.3123 54 27.6686 54C27.9399 54 28.4824 54 28.7537 54C43.4018 52.92 54.5235 40.5 53.981 25.92C53.4384 12.15 42.3167 1.35 28.7537 0.27C28.2112 0.27 27.9399 0.27 27.3974 0.27C26.8549 -2.61515e-07 26.5836 0 26.0411 0ZM16.5469 1.89C15.1906 2.7 13.8343 3.24 12.478 4.05L15.4619 8.64C16.2757 8.1 17.3607 7.56 18.4458 7.02L16.5469 1.89ZM6.51027 9.18C5.42522 10.26 4.61144 11.61 3.79766 12.69L8.4091 15.39C8.95162 14.58 9.7654 13.77 10.5792 12.69L6.51027 9.18ZM36.0777 17.28L23.5997 31.32L16.2757 25.65L13.2918 30.24L24.6848 38.88L40.4179 21.06L36.0777 17.28ZM0.813784 18.9C0.271262 20.25 0 21.87 0 23.22L5.42522 24.03C5.69648 22.95 5.69649 21.6 6.23901 20.52L0.813784 18.9ZM5.42522 29.7L0 30.24C0 30.51 0 30.78 0 31.05C0.271261 32.13 0.542523 33.48 0.813784 34.56L5.96775 32.94C5.69649 32.13 5.42522 31.05 5.42522 29.97V29.7ZM8.4091 38.34L3.79766 41.31C4.61144 42.66 5.42522 43.74 6.51027 44.82L10.5792 41.31C9.7654 40.23 8.95162 39.42 8.4091 38.34ZM15.4619 45.36L12.478 49.95C13.8343 50.76 15.1906 51.3 16.5469 52.11L18.717 47.25C17.3607 46.44 16.2757 45.9 15.4619 45.36Z" fill="#C6C934"/>
</svg>
