<svg width="35" height="35" viewBox="0 0 35 35" fill="none" xmlns="http://www.w3.org/2000/svg">
<circle cx="17.5" cy="17.5" r="17.5" fill="#FCDDDD"/>
<path d="M10 13H26" stroke="#E0665C" stroke-width="1.5" stroke-linecap="round" stroke-linejoin="round"/>
<path d="M11 13L12 25C12 26.1046 12.8954 27 14 27H22C23.1046 27 24 26.1046 24 25L25 13" stroke="#E0665C" stroke-width="1.5" stroke-linecap="round" stroke-linejoin="round"/>
<path d="M15 13V10C15 9.44772 15.4477 9 16 9H20C20.5523 9 21 9.44772 21 10V13" stroke="#E0665C" stroke-width="1.5" stroke-linecap="round" stroke-linejoin="round"/>
<path d="M16.5303 17.4697C16.2374 17.1768 15.7626 17.1768 15.4697 17.4697C15.1768 17.7626 15.1768 18.2374 15.4697 18.5303L16.5303 17.4697ZM19.4697 22.5303C19.7626 22.8232 20.2374 22.8232 20.5303 22.5303C20.8232 22.2374 20.8232 21.7626 20.5303 21.4697L19.4697 22.5303ZM20.5303 18.5303C20.8232 18.2374 20.8232 17.7626 20.5303 17.4697C20.2374 17.1768 19.7626 17.1768 19.4697 17.4697L20.5303 18.5303ZM15.4697 21.4697C15.1768 21.7626 15.1768 22.2374 15.4697 22.5303C15.7626 22.8232 16.2374 22.8232 16.5303 22.5303L15.4697 21.4697ZM15.4697 18.5303L19.4697 22.5303L20.5303 21.4697L16.5303 17.4697L15.4697 18.5303ZM19.4697 17.4697L15.4697 21.4697L16.5303 22.5303L20.5303 18.5303L19.4697 17.4697Z" fill="#E0665C"/>
</svg>
