<svg width="20" height="20" viewBox="0 0 20 20" fill="none" xmlns="http://www.w3.org/2000/svg">
<path d="M17.5 10C17.5 5.85786 14.1421 2.5 10 2.5C5.85786 2.5 2.5 5.85786 2.5 10C2.5 14.1421 5.85786 17.5 10 17.5" stroke="#4B465C" stroke-width="1.5" stroke-linecap="round" stroke-linejoin="round"/>
<path d="M17.5 10C17.5 5.85786 14.1421 2.5 10 2.5C5.85786 2.5 2.5 5.85786 2.5 10C2.5 14.1421 5.85786 17.5 10 17.5" stroke="white" stroke-opacity="0.2" stroke-width="1.5" stroke-linecap="round" stroke-linejoin="round"/>
<path d="M3 7.50016H17" stroke="#4B465C" stroke-width="1.5" stroke-linecap="round" stroke-linejoin="round"/>
<path d="M3 7.50016H17" stroke="white" stroke-opacity="0.2" stroke-width="1.5" stroke-linecap="round" stroke-linejoin="round"/>
<path d="M3 12.5002H10" stroke="#4B465C" stroke-width="1.5" stroke-linecap="round" stroke-linejoin="round"/>
<path d="M3 12.5002H10" stroke="white" stroke-opacity="0.2" stroke-width="1.5" stroke-linecap="round" stroke-linejoin="round"/>
<path d="M9.64841 2.5C6.78419 7.08981 6.78419 12.9102 9.64841 17.5" stroke="#4B465C" stroke-width="1.5" stroke-linecap="round" stroke-linejoin="round"/>
<path d="M9.64841 2.5C6.78419 7.08981 6.78419 12.9102 9.64841 17.5" stroke="white" stroke-opacity="0.2" stroke-width="1.5" stroke-linecap="round" stroke-linejoin="round"/>
<path d="M10.4167 2.5C11.8492 4.79583 12.5001 7.39667 12.5001 10" stroke="#4B465C" stroke-width="1.5" stroke-linecap="round" stroke-linejoin="round"/>
<path d="M10.4167 2.5C11.8492 4.79583 12.5001 7.39667 12.5001 10" stroke="white" stroke-opacity="0.2" stroke-width="1.5" stroke-linecap="round" stroke-linejoin="round"/>
<path d="M14.25 17.4998C14.25 17.9141 14.5858 18.2498 15 18.2498C15.4142 18.2498 15.75 17.9141 15.75 17.4998H14.25ZM15.75 11.6665C15.75 11.2523 15.4142 10.9165 15 10.9165C14.5858 10.9165 14.25 11.2523 14.25 11.6665H15.75ZM16.9697 14.6968C17.2626 14.9897 17.7374 14.9897 18.0303 14.6968C18.3232 14.4039 18.3232 13.9291 18.0303 13.6362L16.9697 14.6968ZM15 11.6665L15.5303 11.1362C15.2374 10.8433 14.7626 10.8433 14.4697 11.1362L15 11.6665ZM11.9697 13.6362C11.6768 13.9291 11.6768 14.4039 11.9697 14.6968C12.2626 14.9897 12.7374 14.9897 13.0303 14.6968L11.9697 13.6362ZM15.75 17.4998V11.6665H14.25V17.4998H15.75ZM18.0303 13.6362L15.5303 11.1362L14.4697 12.1968L16.9697 14.6968L18.0303 13.6362ZM14.4697 11.1362L11.9697 13.6362L13.0303 14.6968L15.5303 12.1968L14.4697 11.1362Z" fill="#4B465C"/>
<path d="M14.25 17.4998C14.25 17.9141 14.5858 18.2498 15 18.2498C15.4142 18.2498 15.75 17.9141 15.75 17.4998H14.25ZM15.75 11.6665C15.75 11.2523 15.4142 10.9165 15 10.9165C14.5858 10.9165 14.25 11.2523 14.25 11.6665H15.75ZM16.9697 14.6968C17.2626 14.9897 17.7374 14.9897 18.0303 14.6968C18.3232 14.4039 18.3232 13.9291 18.0303 13.6362L16.9697 14.6968ZM15 11.6665L15.5303 11.1362C15.2374 10.8433 14.7626 10.8433 14.4697 11.1362L15 11.6665ZM11.9697 13.6362C11.6768 13.9291 11.6768 14.4039 11.9697 14.6968C12.2626 14.9897 12.7374 14.9897 13.0303 14.6968L11.9697 13.6362ZM15.75 17.4998V11.6665H14.25V17.4998H15.75ZM18.0303 13.6362L15.5303 11.1362L14.4697 12.1968L16.9697 14.6968L18.0303 13.6362ZM14.4697 11.1362L11.9697 13.6362L13.0303 14.6968L15.5303 12.1968L14.4697 11.1362Z" fill="white" fill-opacity="0.2"/>
</svg>
